<svg width="48" height="48" viewBox="0 0 48 48" fill="none" xmlns="http://www.w3.org/2000/svg">
<path d="M15 0C15.3978 0 15.7794 0.158035 16.0606 0.439339C16.3419 0.720645 16.5 1.10218 16.5 1.5V6H19.5V1.5C19.5 1.10218 19.6581 0.720645 19.9394 0.439339C20.2206 0.158035 20.6022 0 21 0C21.3978 0 21.7794 0.158035 22.0606 0.439339C22.3419 0.720645 22.5 1.10218 22.5 1.5V6H25.5V1.5C25.5 1.10218 25.6581 0.720645 25.9394 0.439339C26.2206 0.158035 26.6022 0 27 0C27.3978 0 27.7794 0.158035 28.0606 0.439339C28.3419 0.720645 28.5 1.10218 28.5 1.5V6H31.5V1.5C31.5 1.10218 31.6581 0.720645 31.9394 0.439339C32.2206 0.158035 32.6022 0 33 0C33.3978 0 33.7794 0.158035 34.0606 0.439339C34.3419 0.720645 34.5 1.10218 34.5 1.5V6C36.4891 6 38.3968 6.79017 39.8032 8.1967C41.2098 9.60322 42 11.5109 42 13.5H46.5C46.8978 13.5 47.2794 13.658 47.5606 13.9393C47.8419 14.2206 48 14.6022 48 15C48 15.3978 47.8419 15.7794 47.5606 16.0606C47.2794 16.3419 46.8978 16.5 46.5 16.5H42V19.5H46.5C46.8978 19.5 47.2794 19.6581 47.5606 19.9394C47.8419 20.2206 48 20.6022 48 21C48 21.3978 47.8419 21.7794 47.5606 22.0606C47.2794 22.3419 46.8978 22.5 46.5 22.5H42V25.5H46.5C46.8978 25.5 47.2794 25.6581 47.5606 25.9394C47.8419 26.2206 48 26.6022 48 27C48 27.3978 47.8419 27.7794 47.5606 28.0606C47.2794 28.3419 46.8978 28.5 46.5 28.5H42V31.5H46.5C46.8978 31.5 47.2794 31.6581 47.5606 31.9394C47.8419 32.2206 48 32.6022 48 33C48 33.3978 47.8419 33.7794 47.5606 34.0606C47.2794 34.3419 46.8978 34.5 46.5 34.5H42C42 36.4891 41.2098 38.3968 39.8032 39.8032C38.3968 41.2098 36.4891 42 34.5 42V46.5C34.5 46.8978 34.3419 47.2794 34.0606 47.5606C33.7794 47.8419 33.3978 48 33 48C32.6022 48 32.2206 47.8419 31.9394 47.5606C31.6581 47.2794 31.5 46.8978 31.5 46.5V42H28.5V46.5C28.5 46.8978 28.3419 47.2794 28.0606 47.5606C27.7794 47.8419 27.3978 48 27 48C26.6022 48 26.2206 47.8419 25.9394 47.5606C25.6581 47.2794 25.5 46.8978 25.5 46.5V42H22.5V46.5C22.5 46.8978 22.3419 47.2794 22.0606 47.5606C21.7794 47.8419 21.3978 48 21 48C20.6022 48 20.2206 47.8419 19.9394 47.5606C19.6581 47.2794 19.5 46.8978 19.5 46.5V42H16.5V46.5C16.5 46.8978 16.3419 47.2794 16.0606 47.5606C15.7794 47.8419 15.3978 48 15 48C14.6022 48 14.2206 47.8419 13.9393 47.5606C13.658 47.2794 13.5 46.8978 13.5 46.5V42C11.5109 42 9.60322 41.2098 8.1967 39.8032C6.79017 38.3968 6 36.4891 6 34.5H1.5C1.10218 34.5 0.720645 34.3419 0.439339 34.0606C0.158035 33.7794 0 33.3978 0 33C0 32.6022 0.158035 32.2206 0.439339 31.9394C0.720645 31.6581 1.10218 31.5 1.5 31.5H6V28.5H1.5C1.10218 28.5 0.720645 28.3419 0.439339 28.0606C0.158035 27.7794 0 27.3978 0 27C0 26.6022 0.158035 26.2206 0.439339 25.9394C0.720645 25.6581 1.10218 25.5 1.5 25.5H6V22.5H1.5C1.10218 22.5 0.720645 22.3419 0.439339 22.0606C0.158035 21.7794 0 21.3978 0 21C0 20.6022 0.158035 20.2206 0.439339 19.9394C0.720645 19.6581 1.10218 19.5 1.5 19.5H6V16.5H1.5C1.10218 16.5 0.720645 16.3419 0.439339 16.0606C0.158035 15.7794 0 15.3978 0 15C0 14.6022 0.158035 14.2206 0.439339 13.9393C0.720645 13.658 1.10218 13.5 1.5 13.5H6C6 11.5109 6.79017 9.60322 8.1967 8.1967C9.60322 6.79017 11.5109 6 13.5 6V1.5C13.5 1.10218 13.658 0.720645 13.9393 0.439339C14.2206 0.158035 14.6022 0 15 0ZM13.5 9C12.3065 9 11.1619 9.47411 10.318 10.318C9.47411 11.1619 9 12.3065 9 13.5V34.5C9 35.6934 9.47411 36.838 10.318 37.6819C11.1619 38.5258 12.3065 39 13.5 39H34.5C35.6934 39 36.838 38.5258 37.6819 37.6819C38.5258 36.838 39 35.6934 39 34.5V13.5C39 12.3065 38.5258 11.1619 37.6819 10.318C36.838 9.47411 35.6934 9 34.5 9H13.5ZM15 19.5C15 18.3066 15.4742 17.162 16.3181 16.3181C17.162 15.4742 18.3066 15 19.5 15H28.5C29.6934 15 30.838 15.4742 31.6819 16.3181C32.5258 17.162 33 18.3066 33 19.5V28.5C33 29.6934 32.5258 30.838 31.6819 31.6819C30.838 32.5258 29.6934 33 28.5 33H19.5C18.3066 33 17.162 32.5258 16.3181 31.6819C15.4742 30.838 15 29.6934 15 28.5V19.5ZM19.5 18C19.1022 18 18.7206 18.1581 18.4394 18.4394C18.1581 18.7206 18 19.1022 18 19.5V28.5C18 28.8978 18.1581 29.2794 18.4394 29.5606C18.7206 29.8419 19.1022 30 19.5 30H28.5C28.8978 30 29.2794 29.8419 29.5606 29.5606C29.8419 29.2794 30 28.8978 30 28.5V19.5C30 19.1022 29.8419 18.7206 29.5606 18.4394C29.2794 18.1581 28.8978 18 28.5 18H19.5Z" fill="#7880B5"/>
</svg>
