<svg width="394" height="534" viewBox="0 0 394 534" fill="none" xmlns="http://www.w3.org/2000/svg">
<rect width="394" height="534" fill="#7880B5"/>
<rect width="300" height="300" transform="translate(47 117)" fill="#7880B5"/>
<path d="M327.056 141.51H321.956V251.184H327.056V141.51Z" fill="#E0E0E0"/>
<path d="M321.11 142.356H248.036C247.996 142.356 247.964 142.388 247.964 142.428V251.262C247.964 251.302 247.996 251.334 248.036 251.334H321.11C321.15 251.334 321.182 251.302 321.182 251.262V142.428C321.182 142.388 321.15 142.356 321.11 142.356Z" fill="#F5F5F5"/>
<path d="M321.956 252.18H247.19C247.171 252.18 247.153 252.173 247.139 252.159C247.126 252.145 247.118 252.127 247.118 252.108V141.6C247.118 141.581 247.126 141.563 247.139 141.549C247.153 141.536 247.171 141.528 247.19 141.528H321.956C321.966 141.527 321.976 141.528 321.985 141.532C321.995 141.535 322.003 141.54 322.011 141.547C322.018 141.554 322.024 141.562 322.028 141.571C322.032 141.58 322.034 141.59 322.034 141.6V252.108C322.034 252.118 322.032 252.128 322.028 252.137C322.024 252.146 322.018 252.154 322.011 252.161C322.003 252.168 321.995 252.173 321.985 252.176C321.976 252.18 321.966 252.181 321.956 252.18ZM248.888 250.488H320.288C320.308 250.487 320.326 250.478 320.339 250.463C320.353 250.449 320.36 250.43 320.36 250.41V143.28C320.36 143.261 320.352 143.243 320.339 143.229C320.325 143.216 320.307 143.208 320.288 143.208H248.888C248.869 143.208 248.851 143.216 248.837 143.229C248.824 143.243 248.816 143.261 248.816 143.28V250.41C248.815 250.42 248.816 250.43 248.82 250.439C248.823 250.449 248.828 250.458 248.835 250.465C248.842 250.472 248.85 250.478 248.859 250.482C248.868 250.486 248.878 250.488 248.888 250.488Z" fill="#EBEBEB"/>
<path d="M313.868 149.082H255.41C255.37 149.082 255.338 149.114 255.338 149.154V244.47C255.338 244.51 255.37 244.542 255.41 244.542H313.868C313.908 244.542 313.94 244.51 313.94 244.47V149.154C313.94 149.114 313.908 149.082 313.868 149.082Z" fill="white"/>
<path d="M300.992 176.142H268.16C268.14 176.142 268.124 176.158 268.124 176.178V214.674C268.124 214.694 268.14 214.71 268.16 214.71H300.992C301.012 214.71 301.028 214.694 301.028 214.674V176.178C301.028 176.158 301.012 176.142 300.992 176.142Z" fill="#EBEBEB"/>
<path d="M298.4 210C298.442 210.126 296.816 210.834 293.726 210.474C291.827 210.226 290.022 209.504 288.476 208.374C286.372 206.812 284.919 204.528 284.396 201.96C284.097 200.352 284.23 198.694 284.783 197.155C285.335 195.615 286.287 194.251 287.54 193.2C288.246 192.611 289.045 192.143 289.904 191.814C290.851 191.466 291.867 191.351 292.868 191.478C293.966 191.583 295.002 192.035 295.826 192.768C296.289 193.203 296.638 193.745 296.841 194.347C297.044 194.949 297.095 195.592 296.99 196.218C296.765 197.347 296.2 198.379 295.37 199.176C294.633 199.893 293.796 200.499 292.886 200.976C291.071 201.984 289.049 202.563 286.976 202.668C284.783 202.787 282.601 202.29 280.676 201.234C278.687 200.131 277.072 198.46 276.038 196.434C274.964 194.362 274.668 191.974 275.204 189.702C275.727 187.507 276.977 185.553 278.75 184.158C279.644 183.469 280.663 182.957 281.75 182.652C282.844 182.363 283.989 182.328 285.098 182.55C286.273 182.772 287.342 183.375 288.14 184.266C288.91 185.173 289.335 186.322 289.34 187.512C289.348 188.596 289.073 189.663 288.542 190.608C288.057 191.466 287.423 192.23 286.67 192.864C285.307 194.008 283.718 194.852 282.008 195.342C280.418 195.805 278.749 195.934 277.106 195.72C275.575 195.511 274.112 194.951 272.834 194.082C271.733 193.359 270.8 192.409 270.098 191.295C269.395 190.182 268.939 188.931 268.76 187.626C268.543 185.657 269.084 183.679 270.272 182.094C270.979 181.108 271.944 180.335 273.062 179.862C273.83 179.568 274.262 179.58 274.262 179.652C274.262 179.724 273.914 179.928 273.296 180.342C272.408 180.951 271.664 181.748 271.118 182.676C270.268 184.096 269.954 185.773 270.23 187.404C270.446 188.453 270.878 189.446 271.497 190.32C272.117 191.193 272.911 191.929 273.83 192.48C274.951 193.139 276.203 193.544 277.497 193.669C278.792 193.793 280.098 193.633 281.324 193.2C282.704 192.759 283.979 192.038 285.068 191.082C285.598 190.662 286.03 190.13 286.332 189.525C286.633 188.919 286.798 188.254 286.814 187.578C286.81 186.959 286.579 186.363 286.164 185.904C285.749 185.445 285.179 185.154 284.564 185.088C283.847 184.96 283.111 184.995 282.41 185.19C281.674 185.414 280.986 185.774 280.382 186.252C279.097 187.289 278.196 188.725 277.82 190.332C277.444 191.985 277.667 193.718 278.45 195.222C279.242 196.77 280.474 198.049 281.99 198.9C283.477 199.724 285.164 200.117 286.862 200.034C288.541 199.968 290.182 199.521 291.662 198.726C292.361 198.369 293.005 197.914 293.576 197.376C294.048 196.957 294.387 196.408 294.548 195.798C294.594 195.57 294.581 195.334 294.512 195.112C294.443 194.889 294.319 194.688 294.152 194.526C293.708 194.136 293.155 193.893 292.568 193.83C291.942 193.736 291.303 193.789 290.702 193.986C290.075 194.206 289.489 194.528 288.968 194.94C287.983 195.723 287.22 196.749 286.753 197.917C286.286 199.085 286.131 200.354 286.304 201.6C286.657 203.766 287.769 205.735 289.442 207.156C290.751 208.243 292.293 209.013 293.948 209.406C296.732 210.078 298.4 209.754 298.4 210Z" fill="#E0E0E0"/>
<path d="M165.62 141.036H78.4099V297.702H165.62V141.036Z" fill="#EBEBEB"/>
<path d="M161.234 145.578H81.896V293.034H161.234V145.578Z" fill="#FAFAFA"/>
<path d="M169.304 299.112L165.62 297.696V138.378H169.304V299.112Z" fill="#E0E0E0"/>
<path d="M162.962 187.992H81.896V189.564H162.962V187.992Z" fill="#E0E0E0"/>
<path d="M162.962 223.11H81.896V224.682H162.962V223.11Z" fill="#E0E0E0"/>
<path d="M162.962 258.222H81.896V259.794H162.962V258.222Z" fill="#E0E0E0"/>
<path d="M119.558 188.784V297.216H123.566V188.784H119.558Z" fill="#E0E0E0"/>
<path d="M98.9901 145.578H97.1721V188.784H98.9901V145.578Z" fill="#E0E0E0"/>
<path d="M114.65 145.578H112.832V188.784H114.65V145.578Z" fill="#E0E0E0"/>
<path d="M130.316 145.578H128.498V188.784H130.316V145.578Z" fill="#E0E0E0"/>
<path d="M145.976 145.578H144.158V188.784H145.976V145.578Z" fill="#E0E0E0"/>
<path d="M78.41 138.378H74.72V298.668H78.41V138.378Z" fill="#E0E0E0"/>
<path d="M169.304 136.758H74.72V141.03H169.304V136.758Z" fill="#E0E0E0"/>
<path d="M171.806 299.634H72.104V303.618H171.806V299.634Z" fill="#E0E0E0"/>
<path d="M165.62 297.696L171.806 299.634H72.104L78.41 297.696H165.62Z" fill="#EBEBEB"/>
<path d="M118.364 315.456H87.8V323.544H118.364V315.456Z" fill="#EBEBEB"/>
<path d="M105.44 332.058C105.44 332.058 105.44 332.004 105.44 331.908C105.44 331.812 105.44 331.668 105.44 331.494C105.44 331.116 105.44 330.582 105.44 329.904C105.44 328.506 105.44 326.502 105.386 323.97L105.482 324.066L74.9181 324.126C74.9901 324.06 74.7621 324.282 75.0741 323.97V332.052L74.9181 331.896L96.6981 331.968L103.13 332.01H104.87H105.32H105.482H105.344H104.906H103.202L96.8061 332.058L74.9181 332.124H74.7681V331.974C74.7681 330.672 74.7681 329.346 74.7681 327.996V324L74.9241 323.844L105.488 323.904H105.584V324C105.584 326.556 105.542 328.584 105.53 330C105.53 330.672 105.53 331.2 105.53 331.572C105.53 331.734 105.53 331.866 105.53 331.968C105.504 332.001 105.474 332.032 105.44 332.058Z" fill="#E0E0E0"/>
<path d="M232.052 138.48H201.488V146.568H232.052V138.48Z" fill="#EBEBEB"/>
<path d="M219.134 155.082C219.126 155.032 219.126 154.982 219.134 154.932C219.134 154.824 219.134 154.686 219.134 154.518C219.134 154.14 219.134 153.606 219.134 152.928C219.134 151.53 219.104 149.526 219.086 146.994L219.182 147.09L188.618 147.15C188.684 147.078 188.462 147.306 188.768 146.994V155.082L188.612 154.926L210.398 154.998L216.8 155.04H218.54H218.996H219.158H219.014H218.576H216.872L210.476 155.088L188.588 155.154H188.438V151.104C188.438 150.426 188.438 149.748 188.438 149.064V147C188.75 146.688 188.528 146.916 188.6 146.844L219.164 146.904H219.2V147C219.2 149.556 219.164 151.578 219.152 153C219.152 153.672 219.152 154.2 219.152 154.572C219.152 154.734 219.152 154.866 219.152 154.968C219.148 155.006 219.142 155.044 219.134 155.082Z" fill="#E0E0E0"/>
<path d="M296.324 318.306C296.319 318.258 296.319 318.21 296.324 318.162C296.324 318.054 296.324 317.916 296.324 317.748C296.324 317.364 296.324 316.836 296.324 316.152C296.324 314.76 296.294 312.75 296.27 310.224L296.366 310.314L265.802 310.38L265.958 310.224V314.316C265.958 315.666 265.958 316.998 265.958 318.294L265.808 318.144L287.588 318.21L294.014 318.258H295.754H296.21H296.372H296.228H295.796H294.086L287.696 318.3L265.808 318.372H265.652V310.236L265.808 310.08L296.372 310.14H296.468V310.2C296.468 312.75 296.426 314.778 296.414 316.2C296.414 316.872 296.414 317.4 296.414 317.772C296.414 317.934 296.414 318.066 296.414 318.168C296.389 318.217 296.359 318.263 296.324 318.306Z" fill="#E0E0E0"/>
<path d="M300.47 310.2C300.462 310.148 300.462 310.096 300.47 310.044C300.47 309.93 300.47 309.786 300.47 309.618C300.47 309.216 300.47 308.676 300.44 307.992C300.44 306.576 300.404 304.572 300.38 302.112L300.494 302.226L282.128 302.268C281.99 302.406 282.314 302.076 282.284 302.112V304.212C282.284 304.908 282.284 305.592 282.284 306.27V310.2L282.134 310.05L295.268 310.122L299.096 310.164H300.128H300.5C300.388 310.173 300.276 310.173 300.164 310.164H299.162L295.37 310.206L282.134 310.272H281.984V310.2C281.984 308.94 281.984 307.632 281.984 306.276V302.118L282.14 301.962L300.506 302.004H300.614V302.118C300.614 304.608 300.572 306.636 300.554 308.07C300.554 308.742 300.554 309.27 300.554 309.666C300.554 310.062 300.476 310.23 300.47 310.2Z" fill="#E0E0E0"/>
<path d="M245.918 380.316C245.914 380.266 245.914 380.216 245.918 380.166C245.918 380.058 245.918 379.92 245.918 379.752C245.918 379.374 245.918 378.84 245.918 378.162C245.918 376.764 245.918 374.76 245.864 372.228L245.96 372.324L215.396 372.384C215.462 372.312 215.24 372.54 215.546 372.228V380.304L215.396 380.148L237.176 380.22L243.602 380.262H245.342H245.798C245.852 380.254 245.906 380.254 245.96 380.262H245.816H245.378H243.674L237.278 380.304L215.396 380.376H215.24V372.24L215.396 372.084L245.96 372.144H246.056V372.24C246.056 374.796 246.02 376.818 246.008 378.24C246.008 378.912 246.008 379.44 246.008 379.812C246.008 379.974 246.008 380.106 246.008 380.208C245.98 380.246 245.95 380.282 245.918 380.316Z" fill="#E0E0E0"/>
<path d="M250.058 372.228C250.058 372.228 250.058 372.174 250.058 372.072C250.058 371.97 250.058 371.814 250.058 371.646C250.058 371.25 250.058 370.704 250.058 370.026C250.058 368.604 250.022 366.606 249.998 364.14L250.106 364.254L231.746 364.296C231.602 364.434 231.932 364.11 231.902 364.14V368.298C231.902 369.654 231.902 370.962 231.902 372.222L231.758 372.072L244.892 372.144L248.72 372.186H249.752H250.118C250.008 372.195 249.898 372.195 249.788 372.186H248.786L244.994 372.228L231.758 372.3H231.608V372.15C231.608 370.89 231.608 369.582 231.608 368.226V364.068L231.764 363.912L250.124 363.96H250.238V364.068C250.238 366.558 250.19 368.586 250.178 370.02C250.178 370.692 250.178 371.22 250.178 371.616C250.158 371.823 250.117 372.028 250.058 372.228Z" fill="#E0E0E0"/>
<path d="M284.108 374.73C284.108 374.73 280.4 349.122 280.694 334.2C280.988 319.278 280.694 302.538 280.694 302.538H282.41C282.41 302.538 281.246 332.118 282.512 349.938C283.778 367.758 287.108 374.7 287.108 374.7H284.108" fill="#E0E0E0"/>
<path d="M295.202 273.744C294.937 272.835 294.388 272.034 293.636 271.458C292.55 270.768 291.122 271.05 289.91 271.458C284.72 273.294 280.124 282.96 278.03 288.048L284.912 311.25C297.338 299.742 299.492 284.616 295.202 273.744Z" fill="#E0E0E0"/>
<path d="M293.234 272.4C293.217 272.504 293.184 272.605 293.138 272.7C293.048 272.922 292.934 273.204 292.802 273.546C292.496 274.278 292.076 275.346 291.566 276.66C290.552 279.294 289.262 282.978 288.11 287.124C286.958 291.27 286.166 295.098 285.68 297.882C285.434 299.268 285.248 300.396 285.128 301.176C285.068 301.544 285.02 301.844 284.984 302.076C285.024 302.084 285.059 302.106 285.083 302.138C285.108 302.17 285.119 302.21 285.115 302.25C285.112 302.291 285.093 302.328 285.063 302.355C285.033 302.382 284.994 302.397 284.954 302.397C284.914 302.397 284.875 302.382 284.845 302.355C284.815 302.328 284.796 302.291 284.793 302.25C284.789 302.21 284.8 302.17 284.825 302.138C284.849 302.106 284.884 302.084 284.924 302.076C284.924 301.836 284.984 301.536 285.02 301.17C285.104 300.384 285.26 299.25 285.482 297.852C286.065 294.211 286.85 290.606 287.834 287.052C288.823 283.506 290.007 280.016 291.38 276.6C291.914 275.292 292.364 274.242 292.7 273.522L293.084 272.7C293.121 272.594 293.172 272.494 293.234 272.4Z" fill="#EBEBEB"/>
<path d="M281.852 316.836C275.396 313.266 271.598 306.558 271.238 299.196C270.992 294.048 272.576 288.996 274.364 284.16C274.474 283.722 274.733 283.336 275.096 283.068C275.636 282.762 276.296 283.068 276.854 283.344C281.546 286.014 284.384 291.108 285.896 296.286C286.983 299.722 287.344 303.347 286.958 306.93C286.368 310.696 284.577 314.17 281.852 316.836Z" fill="#EBEBEB"/>
<path d="M281.852 316.836C281.838 316.733 281.838 316.628 281.852 316.524C281.852 316.29 281.852 315.996 281.852 315.63C281.852 314.862 281.816 313.74 281.756 312.36C281.572 308.767 281.171 305.189 280.556 301.644C279.842 297.492 278.972 293.766 278.33 291.078C278.018 289.764 277.73 288.678 277.568 287.892C277.492 287.544 277.426 287.256 277.37 287.028C277.339 286.927 277.323 286.822 277.322 286.716C277.363 286.811 277.397 286.91 277.424 287.01L277.676 287.868C277.886 288.612 278.18 289.668 278.528 291.03C279.218 293.712 280.118 297.432 280.838 301.596C281.458 305.152 281.831 308.747 281.954 312.354C281.996 313.74 281.996 314.862 281.954 315.636C281.954 315.996 281.954 316.29 281.918 316.524C281.909 316.63 281.887 316.735 281.852 316.836Z" fill="#E0E0E0"/>
<path d="M289.136 356.016C295.484 357.414 300.716 361.89 306.842 364.068C310.898 365.514 315.482 366.024 318.722 368.868C317.942 366.906 316.1 365.604 314.312 364.482C309.267 361.333 303.883 358.763 298.262 356.82C295.376 355.824 292.262 355.02 289.31 355.812" fill="#EBEBEB"/>
<path d="M279.95 361.674C271.994 361.548 263.618 354.774 255.704 354.372C263.99 351.696 275.852 353.88 279.95 361.674Z" fill="#EBEBEB"/>
<path d="M283.058 342.6C287.096 341.142 291.53 341.076 295.778 341.736C300.026 342.396 304.118 343.752 308.192 345.108C307.784 342.348 305.546 340.272 303.446 338.436C301.908 337.004 300.239 335.721 298.46 334.602C296.661 333.482 294.58 332.897 292.46 332.916C291.193 333 289.955 333.338 288.821 333.91C287.688 334.482 286.68 335.276 285.86 336.246C284.263 338.005 283.28 340.235 283.058 342.6Z" fill="#EBEBEB"/>
<path d="M266.732 333.81C261.728 329.538 254.132 329.952 247.532 330.102C258.108 335.143 268.083 341.358 277.268 348.63C277.562 343.98 273.056 339.21 266.732 333.81Z" fill="#455A64"/>
<path d="M266.732 333.81C261.728 329.538 254.132 329.952 247.532 330.102C258.108 335.143 268.083 341.358 277.268 348.63C277.562 343.98 273.056 339.21 266.732 333.81Z" fill="#EBEBEB"/>
<path d="M285.308 327.912C287.748 326.217 290.32 324.72 293 323.436C295.634 322.236 298.094 320.328 300.638 318.948C303.938 317.148 306.8 314.676 309.83 312.462C312.86 310.248 316.184 308.262 319.892 307.662C316.841 307.117 313.704 307.297 310.736 308.19C307.778 309.08 304.895 310.201 302.114 311.544C298.208 313.302 294.23 315.108 291.038 317.964C287.846 320.82 284.96 323.64 285.296 327.912" fill="#EBEBEB"/>
<path d="M306.698 361.674C306.698 361.674 306.608 361.644 306.446 361.566L305.75 361.206C305.15 360.888 304.292 360.414 303.212 359.874C302.672 359.586 302.078 359.274 301.412 358.992C300.746 358.71 300.08 358.362 299.348 358.044C297.766 357.334 296.126 356.762 294.446 356.334C292.782 355.878 291.031 355.835 289.346 356.208C288.608 356.365 287.883 356.582 287.18 356.856C286.575 357.101 285.992 357.401 285.44 357.75C284.634 358.254 283.896 358.859 283.244 359.55C282.782 360.042 282.56 360.348 282.536 360.33C282.575 360.247 282.623 360.168 282.68 360.096C282.782 359.946 282.944 359.736 283.16 359.496C283.79 358.762 284.519 358.12 285.326 357.588C285.886 357.219 286.479 356.902 287.096 356.64C287.806 356.354 288.539 356.127 289.286 355.962C291.009 355.559 292.806 355.594 294.512 356.064C296.207 356.497 297.86 357.081 299.45 357.81C300.188 358.134 300.878 358.458 301.514 358.788C302.15 359.118 302.75 359.388 303.278 359.7C304.352 360.27 305.198 360.768 305.78 361.116L306.452 361.524C306.54 361.564 306.623 361.614 306.698 361.674Z" fill="#E0E0E0"/>
<path d="M274.016 357.732C274.188 357.758 274.356 357.809 274.514 357.882C274.958 358.038 275.391 358.224 275.81 358.44C277.203 359.149 278.485 360.059 279.614 361.14C280.74 362.222 281.698 363.466 282.458 364.83C282.685 365.24 282.886 365.665 283.058 366.102C283.139 366.256 283.195 366.422 283.226 366.594C283.178 366.594 282.884 365.94 282.272 364.926C280.676 362.288 278.417 360.114 275.72 358.62C274.682 358.05 273.998 357.78 274.016 357.732Z" fill="#E0E0E0"/>
<path d="M256.4 333.414C256.515 333.432 256.628 333.465 256.736 333.51L257.69 333.852L259.196 334.404C259.796 334.626 260.396 334.944 261.14 335.262C264.872 336.989 268.355 339.209 271.496 341.862C273.213 343.335 274.827 344.925 276.326 346.62C277.543 348.007 278.688 349.455 279.758 350.958C280.664 352.248 281.354 353.316 281.822 354.06C282.05 354.408 282.23 354.66 282.368 354.912C282.44 355.005 282.499 355.108 282.542 355.218C282.458 355.137 282.383 355.046 282.32 354.948C282.182 354.762 281.978 354.486 281.72 354.12C281.222 353.4 280.52 352.32 279.578 351.078C278.636 349.836 277.49 348.348 276.122 346.794C274.622 345.124 273.019 343.549 271.322 342.078C268.196 339.443 264.748 337.216 261.062 335.448C260.348 335.118 259.724 334.782 259.142 334.554L257.66 333.954L256.724 333.564C256.612 333.524 256.503 333.474 256.4 333.414Z" fill="#E0E0E0"/>
<path d="M294.992 338.124C294.779 338.12 294.568 338.092 294.362 338.04L293.63 337.908C293.342 337.848 293.03 337.848 292.652 337.812C291.192 337.681 289.722 337.874 288.346 338.38C286.97 338.885 285.724 339.689 284.696 340.734C284.091 341.332 283.555 341.996 283.1 342.714C282.689 343.386 282.322 344.083 282.002 344.802C282.032 344.596 282.086 344.395 282.164 344.202C282.367 343.655 282.623 343.129 282.926 342.63C283.37 341.885 283.901 341.196 284.51 340.578C285.248 339.805 286.107 339.159 287.054 338.664C288.78 337.764 290.737 337.406 292.67 337.638C293 337.666 293.329 337.712 293.654 337.776L294.386 337.956C294.593 337.99 294.797 338.046 294.992 338.124Z" fill="#E0E0E0"/>
<path d="M302.99 313.32C302.896 313.392 302.796 313.454 302.69 313.506L301.802 313.986C301.028 314.406 299.918 315.018 298.568 315.786C297.218 316.554 295.646 317.586 293.96 318.786C292.123 320.071 290.402 321.514 288.818 323.1C287.997 323.909 287.288 324.825 286.712 325.824C286.19 326.82 285.692 327.792 285.236 328.716C284.409 330.354 283.67 332.034 283.022 333.75C282.592 334.907 282.234 336.089 281.948 337.29C281.744 338.142 281.672 338.622 281.642 338.616C281.646 338.499 281.658 338.383 281.678 338.268C281.678 338.04 281.75 337.698 281.84 337.266C282.085 336.044 282.418 334.841 282.836 333.666C283.458 331.932 284.179 330.235 284.996 328.584C285.452 327.648 285.944 326.682 286.466 325.674C287.054 324.652 287.776 323.713 288.614 322.884C290.209 321.285 291.948 319.836 293.81 318.558C295.508 317.358 297.11 316.386 298.466 315.6C299.822 314.814 300.962 314.232 301.748 313.848L302.66 313.416C302.766 313.372 302.877 313.34 302.99 313.32Z" fill="#E0E0E0"/>
<path d="M280.682 337.404C280.608 337.188 280.555 336.965 280.526 336.738C280.43 336.246 280.316 335.628 280.178 334.896C279.435 330.852 278.166 326.923 276.404 323.208L275.624 321.504C275.515 321.301 275.431 321.085 275.372 320.862C275.511 321.049 275.63 321.25 275.726 321.462C275.936 321.846 276.236 322.416 276.584 323.124C277.509 324.972 278.297 326.885 278.942 328.848C279.569 330.81 280.048 332.815 280.376 334.848C280.502 335.634 280.592 336.264 280.634 336.708C280.674 336.938 280.69 337.171 280.682 337.404Z" fill="#E0E0E0"/>
<path d="M280.106 319.308C279.856 316.296 278.975 313.371 277.52 310.722C275.561 307.076 272.827 303.904 269.509 301.428C266.192 298.953 262.373 297.234 258.32 296.394L276.11 322.908L278.402 327.636C279.962 325.068 280.31 322.314 280.106 319.308Z" fill="#E0E0E0"/>
<path d="M305.624 371.562H264.26V378.894H305.624V371.562Z" fill="#EBEBEB"/>
<path d="M267.35 377.436L270.872 400.188H298.334L302.534 377.436H267.35Z" fill="#EBEBEB"/>
<path d="M305.6 378.9C305.6 378.984 296.27 379.05 284.762 379.05C273.254 379.05 263.924 378.984 263.924 378.9C263.924 378.816 273.254 378.756 284.762 378.756C296.27 378.756 305.6 378.822 305.6 378.9Z" fill="#E0E0E0"/>
<path d="M123.542 361.836C125.972 360.414 128.9 360.096 131.696 360.402C133.202 360.57 134.774 360.936 135.848 361.998C136.922 363.06 137.216 364.998 136.106 366.042C135.384 366.592 134.492 366.87 133.586 366.828C131.414 366.918 128.984 366.666 127.322 368.058C126.374 368.856 125.78 370.134 124.616 370.56C124.033 370.729 123.41 370.704 122.843 370.487C122.275 370.271 121.794 369.875 121.472 369.36C120.851 368.304 120.658 367.05 120.932 365.856C121.028 365.03 121.314 364.238 121.766 363.541C122.219 362.843 122.827 362.26 123.542 361.836Z" fill="#EBEBEB"/>
<path d="M117.518 356.298C119.156 358.398 122.084 357.498 123.392 356.118C124.7 354.738 125.192 352.752 125.606 350.886C126.59 346.62 127.574 342.144 126.452 337.914C126.163 336.63 125.528 335.449 124.616 334.5C124.155 334.035 123.58 333.698 122.948 333.524C122.316 333.351 121.65 333.346 121.016 333.51C119.54 333.984 118.688 335.496 118.094 336.924C116.333 341.146 115.534 345.706 115.754 350.274C115.862 352.398 116.228 354.612 117.554 356.274" fill="#EBEBEB"/>
<path d="M113.492 359.652C115.046 357.594 115.208 354.708 114.338 352.284C113.369 349.882 111.758 347.792 109.682 346.242C107.315 344.352 104.603 342.942 101.696 342.09C100.567 341.702 99.3677 341.563 98.18 341.682C97.5882 341.748 97.0214 341.957 96.5288 342.291C96.0363 342.626 95.633 343.076 95.354 343.602C94.622 345.204 95.504 347.046 96.428 348.54C98.062 351.17 99.8996 353.667 101.924 356.01C103.556 357.894 105.404 359.742 107.774 360.504C110.144 361.266 112.574 361.038 113.696 359.358" fill="#EBEBEB"/>
<path d="M118.886 384C118.945 383.669 118.973 383.334 118.97 382.998C118.97 382.272 119.042 381.366 119.09 380.28C119.153 378.942 119.285 377.608 119.486 376.284C119.761 374.669 120.162 373.078 120.686 371.526C121.198 369.977 121.927 368.508 122.852 367.164C123.606 366.072 124.591 365.16 125.738 364.494C126.518 364.055 127.363 363.741 128.24 363.564C128.572 363.536 128.9 363.472 129.218 363.372C128.884 363.348 128.548 363.36 128.216 363.408C127.301 363.528 126.416 363.811 125.6 364.242C124.386 364.892 123.34 365.817 122.546 366.942C121.581 368.307 120.823 369.808 120.296 371.394C119.756 372.968 119.355 374.586 119.096 376.23C118.907 377.57 118.803 378.921 118.784 380.274C118.784 381.426 118.784 382.356 118.784 382.998C118.782 383.335 118.816 383.671 118.886 384Z" fill="#E0E0E0"/>
<path d="M119.234 387.102C119.256 386.949 119.256 386.793 119.234 386.64C119.234 386.292 119.186 385.86 119.162 385.326C119.096 384.186 119.006 382.53 118.958 380.49C118.844 376.41 118.958 372.006 119.312 365.784C119.642 359.928 120.146 353.118 120.824 348.666C120.962 347.658 121.112 346.746 121.256 345.948C121.4 345.15 121.502 344.454 121.622 343.896C121.742 343.338 121.796 342.942 121.862 342.606C121.896 342.454 121.914 342.3 121.916 342.144C121.855 342.287 121.809 342.436 121.778 342.588C121.694 342.924 121.592 343.344 121.466 343.866C121.34 344.388 121.184 345.108 121.028 345.906C120.872 346.704 120.698 347.61 120.536 348.624C119.685 353.888 119.118 359.193 118.838 364.518C118.49 370.752 118.484 376.41 118.67 380.502C118.754 382.548 118.886 384.198 119 385.338C119.06 385.866 119.108 386.304 119.15 386.646C119.164 386.8 119.192 386.953 119.234 387.102Z" fill="#E0E0E0"/>
<path d="M118.682 376.2C118.694 375.741 118.667 375.281 118.604 374.826C118.502 373.95 118.316 372.678 118.004 371.13C117.604 369.32 117.103 367.533 116.504 365.778C115.795 363.617 114.923 361.513 113.894 359.484C112.123 355.736 109.683 352.342 106.694 349.47C106.178 348.979 105.631 348.523 105.056 348.102C104.804 347.91 104.576 347.718 104.354 347.568L103.754 347.184C103.372 346.927 102.971 346.7 102.554 346.506C103.943 347.479 105.268 348.542 106.52 349.686C109.418 352.586 111.798 355.961 113.558 359.664C114.569 361.682 115.445 363.764 116.18 365.898C116.876 367.86 117.38 369.666 117.752 371.196C118.124 372.726 118.352 373.98 118.49 374.85C118.525 375.304 118.589 375.755 118.682 376.2Z" fill="#E0E0E0"/>
<path d="M108.206 382.242L109.298 397.206H128.522L129.614 382.242H108.206Z" fill="#E0E0E0"/>
<path d="M131.912 376.344H106.352V382.242H131.912V376.344Z" fill="#E0E0E0"/>
<path d="M106.352 396.636V398.268H107.552H131.486V396.636H106.352Z" fill="#EBEBEB"/>
<path d="M108.728 401.148L107.552 398.268H130.574L129.2 401.148H108.728Z" fill="#E0E0E0"/>
<path d="M129.26 387.132C129.26 387.132 129.26 387.186 129.17 387.27L128.882 387.654L127.76 389.088L127.712 389.148L127.664 389.082L124.91 385.278H125.072L122.36 389.112L122.276 389.232L122.18 389.118L119 385.296H119.186L119.006 385.518L116.138 389.118L116.042 389.238L115.952 389.112L113.24 385.278H113.396L110.06 389.082L110 389.148L109.958 389.076C109.514 388.338 109.166 387.744 108.914 387.318L108.644 386.85C108.608 386.798 108.58 386.742 108.56 386.682C108.603 386.728 108.641 386.778 108.674 386.832L108.968 387.282L110.066 389.004H109.964L113.246 385.158L113.33 385.056L113.402 385.164L116.138 388.98H115.958L118.82 385.38L119 385.158L119.09 385.044L119.18 385.158L122.384 388.986H122.204L124.94 385.17L125.024 385.056L125.102 385.17C126.182 386.718 127.106 388.032 127.796 389.016H127.694L128.864 387.618L129.176 387.258C129.199 387.213 129.228 387.171 129.26 387.132Z" fill="#F5F5F5"/>
<path d="M129.884 382.146C129.884 382.212 125.084 382.266 119.126 382.266C113.168 382.266 108.368 382.212 108.368 382.146C108.368 382.08 113.168 382.026 119.126 382.026C125.084 382.026 129.884 382.08 129.884 382.146Z" fill="#F5F5F5"/>
<path d="M130.856 398.43C130.856 398.496 125.618 398.55 119.162 398.55C112.706 398.55 107.468 398.496 107.468 398.43C107.468 398.364 112.706 398.31 119.162 398.31C125.618 398.31 130.856 398.364 130.856 398.43Z" fill="#F5F5F5"/>
<path d="M325.094 400.458C325.094 400.548 267.728 400.614 196.982 400.614C126.236 400.614 68.8579 400.548 68.8579 400.458C68.8579 400.368 126.212 400.302 196.982 400.302C267.752 400.302 325.094 400.374 325.094 400.458Z" fill="#263238"/>
<path d="M213.89 315.816C215.887 317.16 217.956 318.394 220.088 319.512C220.928 319.95 222.002 320.358 222.758 319.794C219.896 317.598 216.926 315.264 215.228 312.126C217.424 306.672 221.228 299.994 227.774 296.322C227.774 296.322 227.984 296.214 228.374 296.04C229.167 297.305 229.81 298.658 230.288 300.072C231.056 302.214 231.71 304.434 232.97 306.33C233.39 305.808 233.234 305.052 233.054 304.41L230.426 295.116C233.21 293.904 236.075 292.885 239 292.068L241.664 298.242C242.144 297.768 242.042 296.994 241.952 296.328C241.715 294.693 241.715 293.032 241.952 291.396C243.531 291.075 245.151 291.004 246.752 291.186C251.372 291.87 254.12 293.856 253.856 296.826C251.363 296.599 248.857 296.537 246.356 296.64C248.733 297.322 251.182 297.725 253.652 297.84C253.273 298.982 252.683 300.042 251.912 300.966C250.886 302.262 250.022 303.216 249.212 304.074C245.153 303.1 240.928 303.032 236.84 303.876C238.136 304.704 239.81 304.476 241.352 304.428C243.533 304.384 245.699 304.803 247.706 305.658C245.822 307.656 243.89 309.942 240.458 315.906L238.898 318.606C237.988 319.186 236.945 319.527 235.868 319.596C234.362 319.658 232.856 319.496 231.398 319.116C231.104 319.056 230.696 319.056 230.624 319.344C230.552 319.632 230.972 319.842 231.29 319.884C232.322 319.951 233.347 320.098 234.356 320.322C235.374 320.556 236.268 321.162 236.864 322.02C233.972 326.706 231.08 330.42 227.264 332.19C225.736 331.812 224.291 331.152 223.004 330.246C223.476 331.306 224.211 332.227 225.14 332.922C223.781 333.242 222.378 333.337 220.988 333.204C211.718 332.376 211.808 322.692 213.47 317.196C213.584 316.8 213.734 316.314 213.89 315.816Z" fill="#263238"/>
<path d="M210.2 345.99C210.196 345.934 210.196 345.878 210.2 345.822C210.2 345.69 210.242 345.534 210.272 345.33C210.35 344.904 210.41 344.262 210.602 343.452C211.172 341.185 211.951 338.975 212.93 336.852C214.385 333.706 216.044 330.66 217.898 327.732C219.968 324.414 222.422 320.88 225.098 317.256C226.442 315.456 227.78 313.698 229.088 312.018C230.396 310.338 231.632 308.712 232.88 307.218C234.037 305.768 235.286 304.393 236.618 303.102L240.302 299.97C242.54 298.038 244.406 296.538 245.75 295.572C246.416 295.086 246.95 294.726 247.316 294.492L247.736 294.228C247.832 294.174 247.88 294.144 247.886 294.15C247.847 294.191 247.802 294.227 247.754 294.258L247.352 294.546C246.998 294.798 246.476 295.146 245.822 295.668C244.502 296.664 242.66 298.188 240.422 300.138L236.768 303.294C235.452 304.582 234.22 305.953 233.078 307.398C231.842 308.91 230.606 310.548 229.304 312.228C228.002 313.908 226.67 315.654 225.326 317.46C222.638 321.06 220.184 324.6 218.126 327.9C216.266 330.812 214.59 333.838 213.11 336.96C212.122 339.066 211.319 341.254 210.71 343.5C210.5 344.298 210.416 344.934 210.32 345.36C210.278 345.558 210.242 345.714 210.218 345.84C210.219 345.891 210.213 345.941 210.2 345.99Z" fill="#263238"/>
<path d="M208.958 331.2C209 331.23 208.574 331.872 208.076 333C207.435 334.488 206.914 336.025 206.516 337.596C206.036 339.438 205.712 341.13 205.52 342.366C205.328 343.602 205.262 344.364 205.214 344.364C205.191 344.183 205.191 343.999 205.214 343.818C205.214 343.464 205.25 342.96 205.322 342.336C205.51 340.717 205.813 339.113 206.228 337.536C206.629 335.947 207.186 334.402 207.89 332.922C208.107 332.475 208.355 332.043 208.634 331.632C208.82 331.332 208.94 331.2 208.958 331.2Z" fill="#263238"/>
<path d="M221.708 303.708C217.994 305.628 214.681 308.238 211.946 311.4L214.184 315.072C214.184 315.072 211.586 313.74 210.476 313.2C208.617 315.633 207.094 318.305 205.946 321.144C206.184 321.395 206.439 321.629 206.708 321.846L208.796 323.598C209.096 323.844 209.396 324.258 209.186 324.564C209.091 324.652 208.975 324.715 208.849 324.745C208.723 324.776 208.591 324.773 208.466 324.738C207.272 324.601 206.099 324.317 204.974 323.892C204.444 325.633 204.063 327.415 203.834 329.22C203.432 332.46 203.636 336.084 205.85 338.472C205.85 338.472 206.15 335.166 212.45 325.068C218.75 314.97 233.396 303.3 233.396 303.3C230.12 300.774 225.374 301.842 221.708 303.708Z" fill="#455A64"/>
<path d="M209.6 329.448C208.651 329.395 207.707 329.278 206.774 329.1C205.829 329.023 204.891 328.88 203.966 328.674C205.876 328.565 207.79 328.828 209.6 329.448Z" fill="#263238"/>
<path d="M214.67 321.894C213.426 321.399 212.222 320.807 211.07 320.124C209.859 319.535 208.696 318.853 207.59 318.084C208.833 318.579 210.037 319.169 211.19 319.848C212.401 320.439 213.565 321.123 214.67 321.894Z" fill="#263238"/>
<path d="M214.958 319.896C214.05 319.594 213.178 319.192 212.36 318.696C211.492 318.284 210.669 317.781 209.906 317.196C210.814 317.498 211.686 317.9 212.504 318.396C213.371 318.81 214.194 319.313 214.958 319.896Z" fill="#263238"/>
<path d="M216.062 310.2C217.587 311.804 218.955 313.55 220.148 315.414C218.627 313.807 217.259 312.061 216.062 310.2Z" fill="#263238"/>
<path d="M219.482 307.938C219.572 307.938 219.902 309.276 220.622 310.83C221.342 312.384 222.158 313.518 222.08 313.578C220.647 312.015 219.739 310.043 219.482 307.938Z" fill="#263238"/>
<path d="M223.07 308.148C223.454 308.549 223.757 309.019 223.964 309.534C224.257 310.003 224.46 310.521 224.564 311.064C224.183 310.661 223.879 310.191 223.67 309.678C223.38 309.208 223.177 308.69 223.07 308.148Z" fill="#263238"/>
<path d="M226.286 307.074C226.352 307.032 226.622 307.326 226.79 307.782C226.958 308.238 226.94 308.634 226.856 308.646C226.772 308.658 226.646 308.304 226.496 307.89C226.346 307.476 226.208 307.122 226.286 307.074Z" fill="#263238"/>
<path d="M192.68 346.524C192.642 346.365 192.62 346.202 192.614 346.038C192.584 345.69 192.548 345.228 192.494 344.646C192.392 343.446 192.212 341.694 191.894 339.552C191.103 333.966 189.549 328.515 187.274 323.352C184.97 318.197 181.738 313.509 177.74 309.522C176.526 308.32 175.235 307.198 173.876 306.162C173.402 305.784 173.006 305.526 172.754 305.328C172.618 305.239 172.49 305.139 172.37 305.028C172.518 305.098 172.658 305.183 172.79 305.28C173.054 305.46 173.462 305.7 173.948 306.066C175.34 307.07 176.659 308.171 177.896 309.36C181.964 313.327 185.242 318.03 187.556 323.22C189.846 328.408 191.38 333.898 192.11 339.522C192.398 341.676 192.542 343.428 192.614 344.64C192.656 345.24 192.662 345.714 192.674 346.038C192.686 346.362 192.686 346.524 192.68 346.524Z" fill="#263238"/>
<path d="M150.092 279.972C155.492 278.592 157.388 280.62 161.96 281.664C169.16 283.314 176.36 285.204 181.76 288.864C187.16 292.524 190.58 298.2 189.08 304.8C188.642 306.693 187.794 308.467 186.596 309.996C185.397 311.525 183.877 312.772 182.144 313.65C179.644 314.793 176.891 315.273 174.152 315.042C167.03 314.604 161.906 311.112 157.592 307.386C153.282 303.678 149.379 299.522 145.946 294.99C144.56 293.148 143.246 291.222 142.838 288.93C142.558 287.254 142.801 285.532 143.534 283.998C144.369 282.483 145.765 281.356 147.422 280.86L150.092 279.972Z" fill="#263238"/>
<path d="M197.888 323.832C197.865 323.771 197.85 323.706 197.846 323.64C197.846 323.49 197.792 323.304 197.75 323.04L197.426 320.826C197.138 318.906 196.778 316.116 196.358 312.666C195.512 305.772 194.558 296.22 193.586 285.666C192.614 275.112 191.69 265.56 190.904 258.666C190.508 255.216 190.178 252.426 189.932 250.5C189.818 249.552 189.728 248.808 189.662 248.28L189.602 247.68C189.595 247.614 189.595 247.548 189.602 247.482C189.626 247.546 189.64 247.612 189.644 247.68C189.644 247.824 189.698 248.016 189.74 248.25L190.064 250.464C190.352 252.39 190.712 255.174 191.132 258.624C191.978 265.518 192.932 275.07 193.904 285.624C194.876 296.178 195.8 305.724 196.586 312.624C196.982 316.074 197.312 318.864 197.558 320.79C197.672 321.738 197.762 322.482 197.828 323.01L197.888 323.61C197.897 323.684 197.897 323.758 197.888 323.832Z" fill="#263238"/>
<path d="M165.74 167.934C173.036 170.034 174.206 175.32 179.138 181.098C186.938 190.218 194.552 199.752 198.98 210.894C203.408 222.036 204.278 235.158 198.65 245.742C195.896 250.92 191.03 255.6 185.162 255.696C181.304 255.762 177.662 253.83 174.68 251.382C166.28 244.518 162.116 233.874 159.038 223.5C155.917 212.963 153.591 202.207 152.078 191.322C151.478 186.834 150.98 182.25 151.808 177.798C152.328 174.78 153.595 171.94 155.492 169.536C156.271 168.601 157.287 167.894 158.433 167.487C159.58 167.081 160.815 166.991 162.008 167.226L165.74 167.934Z" fill="#455A64"/>
<path d="M159.542 173.166C159.542 173.166 159.584 173.232 159.65 173.358C159.716 173.484 159.824 173.7 159.95 173.958L161.072 176.208C162.044 178.164 163.418 181.008 165.074 184.542C168.392 191.604 172.778 201.462 177.218 212.514C181.658 223.566 185.288 233.73 187.778 241.128C189.02 244.83 189.998 247.83 190.646 249.918C190.964 250.944 191.246 251.748 191.39 252.318L191.576 252.918L191.63 253.134C191.592 253.07 191.564 253.002 191.546 252.93L191.33 252.33C191.138 251.766 190.874 250.968 190.532 249.93C189.848 247.854 188.84 244.866 187.568 241.176C185.03 233.802 181.358 223.662 176.924 212.61C172.49 201.558 168.134 191.7 164.87 184.608C163.244 181.068 161.906 178.206 160.964 176.208L159.896 174C159.782 173.748 159.692 173.55 159.62 173.4C159.582 173.326 159.556 173.248 159.542 173.166Z" fill="#263238"/>
<path d="M199.7 343.2C199.68 343.127 199.666 343.053 199.658 342.978C199.658 342.816 199.604 342.594 199.568 342.324C199.49 341.724 199.382 340.878 199.244 339.798C199.106 338.718 198.944 337.362 198.794 335.796C198.644 334.23 198.434 332.46 198.278 330.492C198.122 328.524 197.924 326.37 197.78 324.048C197.636 321.726 197.498 319.248 197.372 316.644C197.156 311.43 197.036 305.688 197.084 299.658C197.132 293.628 197.396 287.886 197.714 282.672C197.9 280.068 198.056 277.59 198.278 275.28C198.5 272.97 198.692 270.81 198.878 268.848C199.064 266.886 199.31 265.11 199.478 263.55C199.646 261.99 199.85 260.658 200.012 259.566C200.174 258.474 200.294 257.64 200.384 257.046C200.426 256.776 200.462 256.56 200.486 256.392C200.519 256.325 200.557 256.261 200.6 256.2C200.607 256.274 200.607 256.348 200.6 256.422C200.6 256.584 200.558 256.806 200.522 257.082C200.45 257.682 200.348 258.522 200.21 259.602C200.072 260.682 199.898 262.038 199.73 263.598C199.562 265.158 199.334 266.928 199.13 268.896C198.926 270.864 198.716 273.006 198.53 275.322C198.344 277.638 198.17 280.122 197.996 282.714C197.69 287.928 197.462 293.658 197.396 299.682C197.33 305.706 197.462 311.442 197.654 316.656C197.78 319.266 197.882 321.744 198.044 324.06C198.206 326.376 198.344 328.53 198.5 330.498C198.656 332.466 198.824 334.242 198.968 335.808C199.112 337.374 199.244 338.712 199.37 339.81C199.496 340.908 199.568 341.742 199.628 342.336C199.658 342.612 199.676 342.834 199.688 342.996C199.697 343.064 199.701 343.132 199.7 343.2Z" fill="#263238"/>
<path d="M197.078 297C197.103 296.839 197.143 296.68 197.198 296.526C197.3 296.19 197.438 295.74 197.606 295.176C197.966 293.976 198.5 292.314 199.178 290.232C200.534 286.068 202.478 280.344 204.752 274.062C207.026 267.78 209.198 262.134 210.824 258.066C211.634 256.032 212.3 254.394 212.774 253.266C213.008 252.726 213.188 252.294 213.326 251.97C213.387 251.818 213.458 251.67 213.536 251.526C213.501 251.687 213.451 251.843 213.386 251.994L212.888 253.314L211.028 258.15C209.456 262.236 207.32 267.894 205.028 274.17C202.736 280.446 200.78 286.17 199.37 290.31C198.674 292.356 198.11 294.03 197.702 295.218C197.51 295.776 197.36 296.22 197.24 296.55C197.2 296.705 197.146 296.855 197.078 297Z" fill="#263238"/>
<path d="M199.4 195.366C199.408 195.44 199.408 195.514 199.4 195.588C199.4 195.756 199.4 195.972 199.358 196.242C199.31 196.842 199.25 197.682 199.166 198.756C198.986 200.934 198.758 204.096 198.506 207.996C198.254 211.896 198.008 216.546 197.798 221.712C197.588 226.878 197.45 232.566 197.372 238.512C197.24 250.446 197.45 261.252 197.66 269.076C197.78 272.97 197.876 276.126 197.942 278.334C197.978 279.414 198.002 280.254 198.02 280.848C198.02 281.124 198.02 281.34 198.02 281.502C198.02 281.664 198.02 281.73 198.02 281.73C198.002 281.657 197.991 281.583 197.99 281.508C197.99 281.346 197.99 281.13 197.948 280.854C197.918 280.254 197.876 279.414 197.816 278.34C197.702 276.15 197.57 272.988 197.438 269.082C197.162 261.282 196.922 250.452 197.054 238.482C197.132 232.512 197.294 226.83 197.504 221.682C197.714 216.534 197.996 211.866 198.284 207.96C198.572 204.054 198.824 200.904 199.04 198.726L199.286 196.218L199.4 195.6C199.391 195.522 199.391 195.444 199.4 195.366Z" fill="#263238"/>
<g opacity="0.3">
<path d="M165.614 222.396C168.692 222.264 171.686 221.436 174.656 220.596C171.962 220.084 169.227 219.813 166.484 219.786C165.089 219.807 163.701 219.982 162.344 220.308C164.583 219.069 166.432 217.23 167.684 214.998L167.738 214.896L172.418 210.432L172.352 210.342C171.044 211.29 169.754 212.274 168.482 213.282C169.378 210.947 169.623 208.413 169.19 205.95C168.303 207.816 166.944 209.419 165.248 210.6C165.672 209.48 165.982 208.32 166.172 207.138C166.436 205.605 166.202 204.029 165.506 202.638C163.322 206.7 159.836 210.06 158.306 214.41C158.216 214.668 158.132 214.932 158.06 215.196C157.616 211.494 156.776 207.834 156.734 204.108C156.359 206.489 156.204 208.899 156.272 211.308C156.062 211.032 155.84 210.768 155.618 210.498C156.614 214.802 157.738 219.072 158.99 223.308C159.589 223.209 160.203 223.237 160.79 223.392C160.264 223.377 159.738 223.41 159.218 223.488L159.038 223.518C159.514 225.118 160.018 226.718 160.55 228.318C161.301 228.198 162.067 228.198 162.818 228.318C163.131 228.367 163.438 228.454 163.73 228.576L165.662 229.776C169.808 233.034 174.344 240.576 174.344 240.576L170.324 231.336C169.964 230.832 168.266 226.728 164.858 224.616C164.511 224.138 164.089 223.719 163.61 223.374C162.803 222.806 161.867 222.449 160.886 222.336C162.464 222.354 164.048 222.462 165.614 222.396Z" fill="black"/>
</g>
<path d="M132.836 225.648L143.954 227.778C145.208 228.018 146.636 228.378 147.212 229.524L146.414 230.004C144.356 228.93 141.974 228.288 139.766 227.574C137.78 226.932 132.332 225.9 132.836 225.648Z" fill="#263238"/>
<path d="M150.044 226.2C152.258 224.551 154.868 223.516 157.61 223.2C160.334 222.904 163.078 222.848 165.812 223.032C162.968 224.202 160.088 225.372 157.046 225.87C154.538 226.284 151.922 226.23 149.528 227.1L150.044 226.2Z" fill="#D55672"/>
<g opacity="0.3">
<path d="M150.044 226.2C152.258 224.551 154.868 223.516 157.61 223.2C160.334 222.904 163.078 222.848 165.812 223.032C162.968 224.202 160.088 225.372 157.046 225.87C154.538 226.284 151.922 226.23 149.528 227.1L150.044 226.2Z" fill="black"/>
</g>
<path d="M162.386 213.222L157.4 219.282C156.485 220.436 155.505 221.538 154.466 222.582C152.822 224.166 150.866 225.492 149.624 227.382C149.947 226.569 150.415 225.821 151.004 225.174C154.498 220.904 158.281 216.879 162.326 213.126" fill="#263238"/>
<path d="M148.94 228.678C148.538 225.42 148.142 222.078 148.85 218.856C149.852 214.35 152.912 210.6 154.598 206.31C155.458 207.606 155.878 209.143 155.798 210.696C155.714 212.238 155.467 213.766 155.06 215.256C154.346 218.256 153.614 221.34 151.964 223.962C151.268 225.072 149.564 226.998 148.964 228.678" fill="#D55672"/>
<g opacity="0.3">
<path d="M148.94 228.678C148.538 225.42 148.142 222.078 148.85 218.856C149.852 214.35 152.912 210.6 154.598 206.31C155.458 207.606 155.878 209.143 155.798 210.696C155.714 212.238 155.467 213.766 155.06 215.256C154.346 218.256 153.614 221.34 151.964 223.962C151.268 225.072 149.564 226.998 148.964 228.678" fill="black"/>
</g>
<path d="M151.064 226.122C151.65 225.572 152.285 225.076 152.96 224.64C155.468 223.035 157.382 220.652 158.409 217.857C159.436 215.062 159.52 212.007 158.648 209.16C157.84 211.55 156.296 213.623 154.238 215.082C154.238 215.082 152.75 215.172 151.508 218.244C150.266 221.316 148.82 228.24 148.82 228.24L151.064 226.122Z" fill="#D55672"/>
<path d="M139.316 234.63C144.686 232.008 143.774 229.764 150.848 227.772C157.922 225.78 162.2 233.592 162.8 234.258L169.4 242.958C169.4 242.958 159.572 232.242 154.964 232.158C150.356 232.074 151.724 234.462 142.592 237.036C133.46 239.61 129.464 238.722 129.464 238.722C132.83 237.564 136.12 236.198 139.316 234.63Z" fill="#263238"/>
<path d="M152.984 227.61C152.279 227.383 151.524 227.362 150.807 227.55C150.09 227.738 149.443 228.128 148.94 228.672C149.047 228.16 149.3 227.69 149.669 227.318C150.037 226.947 150.505 226.69 151.016 226.578C152.443 226.271 153.933 226.484 155.216 227.178C156.127 227.682 156.882 228.426 157.398 229.33C157.915 230.233 158.173 231.262 158.144 232.302C158 235.26 155.516 237.516 154.376 240.246C154.772 238.404 155.174 236.562 155.576 234.72C155.792 233.832 155.929 232.926 155.984 232.014C156.052 231.035 155.813 230.06 155.3 229.224C154.744 228.428 153.923 227.856 152.984 227.61Z" fill="#D55672"/>
<path d="M147.71 222.984C146.78 218.304 145.844 213.576 146.066 208.812C146.666 213.426 148.502 217.812 149.27 222.39C149.391 222.982 149.426 223.588 149.372 224.19C149.288 224.79 149.174 227.664 148.7 228.036L148.628 227.778C148.49 226.662 147.914 223.998 147.71 222.984Z" fill="#263238"/>
<path d="M141.596 209.04C142.038 210.735 142.87 212.302 144.026 213.618C144.998 214.716 146.18 215.622 147.134 216.738C148.088 217.854 148.814 219.294 148.616 220.746C148.478 221.79 147.884 222.72 147.62 223.746C147.416 224.586 147.44 225.465 147.689 226.293C147.938 227.121 148.403 227.867 149.036 228.456C149 228.456 149 228.726 148.88 228.666C145.514 227.124 142.934 223.758 141.506 220.314C140.771 218.523 140.4 216.604 140.416 214.668C140.431 212.732 140.832 210.819 141.596 209.04Z" fill="#D55672"/>
<path d="M141.596 209.04C141.596 209.076 141.368 209.64 141.05 210.744C140.622 212.306 140.454 213.928 140.552 215.544C140.628 216.661 140.829 217.766 141.152 218.838C141.528 220.063 142.044 221.241 142.688 222.348C144.078 224.95 146.216 227.076 148.826 228.45L148.928 228.498C148.914 228.492 148.899 228.488 148.883 228.488C148.868 228.488 148.852 228.492 148.838 228.498C148.838 228.498 148.838 228.498 148.838 228.462V228.408V228.366C148.835 228.352 148.835 228.338 148.838 228.324V228.288C148.874 228.264 148.915 228.252 148.958 228.252L148.838 228.528C148.269 227.997 147.83 227.342 147.557 226.613C147.283 225.884 147.181 225.102 147.26 224.328C147.428 222.804 148.412 221.628 148.406 220.32C148.361 219.075 147.886 217.883 147.062 216.948C146.338 216.124 145.569 215.341 144.758 214.602C143.578 213.506 142.644 212.173 142.016 210.69C141.845 210.291 141.703 209.88 141.59 209.46C141.518 209.178 141.506 209.028 141.5 209.016C141.494 209.004 141.554 209.148 141.65 209.442C141.788 209.85 141.946 210.25 142.124 210.642C142.787 212.084 143.734 213.378 144.908 214.446C145.738 215.178 146.523 215.96 147.26 216.786C148.136 217.763 148.643 219.015 148.694 220.326C148.694 221.76 147.692 222.954 147.56 224.364C147.491 225.092 147.589 225.826 147.847 226.51C148.105 227.195 148.516 227.811 149.048 228.312L149.156 228.408L148.94 228.438C148.97 228.467 149.007 228.488 149.048 228.498V228.552C149.03 228.614 148.999 228.671 148.958 228.72C148.935 228.745 148.905 228.763 148.873 228.774C148.84 228.784 148.806 228.786 148.772 228.78C148.739 228.772 148.706 228.76 148.676 228.744L148.574 228.696C147.178 228.008 145.919 227.071 144.86 225.93C142.982 223.919 141.586 221.506 140.78 218.874C140.47 217.78 140.285 216.655 140.228 215.52C140.149 213.88 140.352 212.238 140.828 210.666C141.03 210.1 141.287 209.556 141.596 209.04Z" fill="#263238"/>
<path d="M149.318 221.004C149.27 220.861 149.252 220.71 149.264 220.56C149.252 220.158 149.279 219.757 149.342 219.36C149.558 218.037 150.022 216.767 150.71 215.616C151.397 214.472 152.202 213.402 153.11 212.424C153.455 211.995 153.847 211.606 154.28 211.266C153.985 211.729 153.65 212.164 153.278 212.568C152.439 213.576 151.679 214.647 151.004 215.772C150.337 216.897 149.857 218.123 149.582 219.402C149.36 220.368 149.372 221.004 149.318 221.004Z" fill="#263238"/>
<path d="M153.41 224.754C153.812 224.554 154.241 224.411 154.682 224.328C156.773 223.793 158.915 223.487 161.072 223.416C161.519 223.378 161.968 223.397 162.41 223.47C162.41 223.566 160.376 223.65 157.892 224.004C155.408 224.358 153.434 224.844 153.41 224.754Z" fill="#263238"/>
<path d="M192.662 274.284C192.587 274.16 192.525 274.03 192.476 273.894L191.996 272.754C191.888 272.508 191.786 272.232 191.648 271.938C191.51 271.644 191.336 271.338 191.156 270.996C190.802 270.324 190.43 269.538 189.914 268.728C187.3 264.472 184.389 260.406 181.202 256.56C177.524 252 174.002 248.058 171.392 245.214L168.314 241.872L167.474 240.96C167.37 240.861 167.277 240.75 167.198 240.63C167.315 240.715 167.423 240.812 167.522 240.918L168.404 241.788C169.16 242.55 170.246 243.66 171.554 245.064C174.182 247.872 177.758 251.796 181.442 256.362C184.643 260.218 187.54 264.316 190.106 268.62C190.616 269.436 190.97 270.234 191.306 270.918L191.774 271.872C191.906 272.172 192.002 272.472 192.098 272.712L192.524 273.876C192.582 274.007 192.629 274.144 192.662 274.284Z" fill="#263238"/>
<path d="M202.484 252.366C202.484 252.366 193.178 252.114 189.548 246.786C185.918 241.458 190.844 220.458 210.668 209.892L215.792 215.046L213.08 206.256C213.08 206.256 218.108 196.872 238.682 194.01C238.682 194.01 245.474 192.276 249.86 193.488C254.246 194.7 252.92 197.748 252.92 197.748C252.92 197.748 204.122 240.168 203.906 240.732C203.69 241.296 202.484 252.366 202.484 252.366Z" fill="#455A64"/>
<path opacity="0.3" d="M249.86 193.488C245.474 192.288 238.682 194.01 238.682 194.01C218.108 196.872 213.08 206.256 213.08 206.256L215.792 215.046L210.668 209.892C190.868 220.458 185.924 241.458 189.548 246.786C193.172 252.114 202.484 252.366 202.484 252.366C202.484 252.366 203.684 241.296 203.906 240.732C204.128 240.168 252.92 197.748 252.92 197.748C252.92 197.748 254.252 194.7 249.86 193.488Z" fill="black"/>
<path d="M228.41 210.21C221.474 213.81 214.376 217.494 208.826 222.894C209.894 223.842 211 224.742 212.144 225.594C212.846 226.116 213.632 226.746 213.662 227.622C211.102 227.182 208.562 226.616 206.042 225.924C198.494 235.17 196.286 247.584 194.3 259.356C194.258 259.553 194.248 259.756 194.27 259.956C194.396 261.156 195.542 261.234 196.466 261.156C198.701 261.029 200.926 260.756 203.126 260.34L208.262 249.204C213.398 238.074 231.74 218.106 238.892 212.004C246.044 205.902 251.99 199.734 252.326 198.972C252.53 198.522 252.704 198.06 252.89 197.604L228.41 210.21Z" fill="#455A64"/>
<path d="M225.728 224.706C225.161 224.421 224.615 224.094 224.096 223.728C223.106 223.128 221.744 222.234 220.22 221.328C218.696 220.422 217.298 219.564 216.29 218.97C215.731 218.67 215.194 218.331 214.682 217.956C215.279 218.173 215.853 218.446 216.398 218.772C217.436 219.324 218.852 220.122 220.382 221.058C221.912 221.994 223.262 222.9 224.222 223.578C224.759 223.906 225.263 224.283 225.728 224.706Z" fill="#263238"/>
<path d="M228.056 220.488C227.138 220.048 226.268 219.515 225.458 218.898C224.598 218.362 223.794 217.741 223.058 217.044C223.978 217.486 224.851 218.021 225.662 218.64C226.523 219.17 227.325 219.79 228.056 220.488Z" fill="#263238"/>
<path d="M222.47 215.94C222.416 216.012 222.176 215.94 221.93 215.736C221.684 215.532 221.528 215.34 221.576 215.274C221.624 215.208 221.87 215.274 222.116 215.484C222.362 215.694 222.524 215.874 222.47 215.94Z" fill="#263238"/>
<path d="M233.18 216.042C232.285 215.289 231.443 214.475 230.66 213.606C229.803 212.813 229.002 211.963 228.26 211.062C229.221 211.736 230.105 212.515 230.894 213.384C231.749 214.186 232.515 215.077 233.18 216.042Z" fill="#263238"/>
<path d="M235.298 212.262C235.382 212.226 235.658 212.754 235.928 213.462C236.135 213.861 236.25 214.302 236.264 214.752C236.186 214.782 235.904 214.254 235.634 213.552C235.427 213.153 235.312 212.712 235.298 212.262Z" fill="#263238"/>
<path d="M214.298 224.466C214.721 224.65 215.124 224.88 215.498 225.15L218.276 226.92L221.066 228.678C221.471 228.893 221.85 229.155 222.194 229.458C221.759 229.309 221.344 229.108 220.958 228.858C220.214 228.456 219.2 227.868 218.108 227.178C217.016 226.488 216.056 225.828 215.372 225.33C214.979 225.089 214.618 224.798 214.298 224.466Z" fill="#263238"/>
<path d="M210.2 245.916C209.574 245.982 208.944 246 208.316 245.97C207.158 245.97 205.556 245.97 203.786 246.066C202.016 246.162 200.42 246.252 199.262 246.342C198.639 246.42 198.012 246.452 197.384 246.438C197.991 246.276 198.612 246.17 199.238 246.12C200.396 245.976 201.998 245.826 203.774 245.754C205.55 245.682 207.158 245.7 208.322 245.754C208.952 245.75 209.58 245.804 210.2 245.916Z" fill="#263238"/>
<path d="M211.55 243.69C211.027 243.629 210.509 243.527 210.002 243.384C209.054 243.168 207.74 242.886 206.282 242.64C204.824 242.394 203.492 242.22 202.526 242.112C202 242.087 201.478 242.013 200.966 241.89C201.491 241.833 202.02 241.833 202.544 241.89C205.087 242.046 207.605 242.475 210.056 243.168C210.572 243.285 211.073 243.46 211.55 243.69Z" fill="#263238"/>
<path d="M235.85 237.492L227.048 241.902C226.052 242.4 224.942 243.036 224.726 244.128L225.512 244.344C227.073 243.009 228.74 241.805 230.498 240.744C232.016 239.73 236.33 237.6 235.85 237.492Z" fill="#263238"/>
<path d="M221.6 242.004C219.358 241.156 216.932 240.916 214.568 241.308C212.216 241.704 209.903 242.306 207.656 243.108C210.306 243.512 212.993 243.615 215.666 243.414C217.868 243.168 220.04 242.508 222.266 242.67L221.6 242.004Z" fill="#D55672"/>
<g opacity="0.3">
<path d="M221.6 242.004C219.358 241.156 216.932 240.916 214.568 241.308C212.216 241.704 209.903 242.306 207.656 243.108C210.306 243.512 212.993 243.615 215.666 243.414C217.868 243.168 220.04 242.508 222.266 242.67L221.6 242.004Z" fill="black"/>
</g>
<path d="M208.172 234.066L213.8 237.96C214.842 238.706 215.923 239.396 217.04 240.024C218.786 240.966 220.724 241.614 222.224 242.916C221.766 242.309 221.198 241.794 220.55 241.398C216.614 238.652 212.495 236.181 208.22 234" fill="#263238"/>
<path d="M223.082 243.828C222.65 241.008 222.182 238.098 220.838 235.584C218.936 232.05 215.492 229.632 213.038 226.44C212.632 227.729 212.647 229.114 213.08 230.394C213.513 231.665 214.08 232.886 214.772 234.036C216.08 236.388 217.418 238.788 219.416 240.594C220.262 241.356 222.14 242.574 223.058 243.828" fill="#D55672"/>
<g opacity="0.3">
<path d="M223.082 243.828C222.65 241.008 222.182 238.098 220.838 235.584C218.936 232.05 215.492 229.632 213.038 226.44C212.632 227.729 212.647 229.114 213.08 230.394C213.513 231.665 214.08 232.886 214.772 234.036C216.08 236.388 217.418 238.788 219.416 240.594C220.262 241.356 222.14 242.574 223.058 243.828" fill="black"/>
</g>
<path d="M220.7 242.196C220.08 241.87 219.432 241.603 218.762 241.398C216.287 240.642 214.128 239.097 212.611 237.001C211.095 234.904 210.305 232.369 210.362 229.782C211.604 231.591 213.388 232.961 215.456 233.694C215.456 233.694 216.722 233.418 218.456 235.704C220.19 237.99 223.07 243.432 223.07 243.432L220.7 242.196Z" fill="#D55672"/>
<path d="M232.55 246.546C227.432 245.616 227.666 243.546 221.27 243.546C214.874 243.546 213.134 251.1 212.786 251.802L210.092 260.286C210.092 260.286 214.994 249.36 218.828 248.196C222.662 247.032 222.086 249.36 230.336 249.36C238.586 249.36 241.736 247.674 241.736 247.674C238.654 247.487 235.586 247.111 232.55 246.546Z" fill="#455A64"/>
<path d="M219.446 243.888C219.983 243.533 220.611 243.338 221.254 243.326C221.898 243.315 222.532 243.486 223.082 243.822C222.867 243.423 222.543 243.092 222.148 242.869C221.753 242.646 221.303 242.54 220.85 242.562C219.589 242.641 218.396 243.159 217.478 244.026C216.837 244.665 216.382 245.468 216.163 246.346C215.944 247.225 215.97 248.147 216.236 249.012C217.058 251.454 219.668 252.756 221.27 254.772L218.966 250.422C218.573 249.731 218.243 249.006 217.982 248.256C217.697 247.453 217.668 246.581 217.898 245.76C218.182 244.976 218.729 244.314 219.446 243.888Z" fill="#D55672"/>
<path d="M222.8 238.8C222.476 234.666 222.14 230.484 220.826 226.548C221.426 230.556 220.91 234.648 221.354 238.674C221.39 239.196 221.503 239.709 221.69 240.198C221.9 240.684 222.674 243.066 223.16 243.264V243C222.986 242.034 222.836 239.67 222.8 238.8Z" fill="#263238"/>
<path d="M224.6 225.654C224.629 227.177 224.3 228.685 223.64 230.058C223.088 231.21 222.314 232.248 221.78 233.406C221.476 233.97 221.293 234.59 221.241 235.229C221.189 235.867 221.271 236.509 221.48 237.114C221.846 237.954 222.56 238.59 223.022 239.382C223.39 240.039 223.577 240.782 223.564 241.535C223.55 242.288 223.336 243.023 222.944 243.666C222.974 243.666 223.04 243.876 223.13 243.804C225.584 241.716 226.946 238.29 227.33 235.068C227.522 233.396 227.379 231.703 226.91 230.087C226.442 228.471 225.656 226.964 224.6 225.654Z" fill="#D55672"/>
<path d="M224.6 225.654C224.957 226.034 225.277 226.448 225.554 226.89C226.328 228.093 226.888 229.42 227.21 230.814C227.431 231.778 227.542 232.765 227.54 233.754C227.524 234.889 227.377 236.019 227.102 237.12C226.55 239.687 225.234 242.028 223.328 243.834L223.256 243.9C223.236 243.923 223.211 243.941 223.184 243.954C223.154 243.968 223.121 243.975 223.088 243.975C223.055 243.975 223.022 243.968 222.992 243.954C222.942 243.923 222.901 243.879 222.872 243.828V243.786C222.909 243.801 222.95 243.801 222.986 243.786L222.8 243.6C223.128 243.058 223.327 242.447 223.381 241.815C223.435 241.184 223.343 240.548 223.112 239.958C222.674 238.824 221.558 238.056 221.21 236.844C220.945 235.731 221.074 234.56 221.576 233.532C222.001 232.667 222.476 231.828 222.998 231.018C223.732 229.848 224.221 228.542 224.438 227.178C224.495 226.808 224.533 226.436 224.552 226.062C224.552 225.798 224.588 225.654 224.588 225.672C224.588 225.69 224.588 225.816 224.618 226.062C224.623 226.441 224.603 226.82 224.558 227.196C224.384 228.588 223.917 229.927 223.19 231.126C222.683 231.934 222.224 232.772 221.816 233.634C221.348 234.607 221.232 235.711 221.486 236.76C221.786 237.852 222.89 238.602 223.394 239.844C223.647 240.479 223.749 241.164 223.692 241.845C223.635 242.526 223.42 243.184 223.064 243.768L222.878 243.534C222.917 243.519 222.96 243.519 222.998 243.534H223.04L223.076 243.564V243.6V243.642C223.058 243.656 223.044 243.675 223.034 243.696L222.986 243.642L223.058 243.57C224.917 241.809 226.204 239.531 226.754 237.03C227.033 235.951 227.188 234.844 227.216 233.73C227.227 232.76 227.131 231.792 226.928 230.844C226.631 229.465 226.11 228.143 225.386 226.932C224.918 226.098 224.6 225.69 224.6 225.654Z" fill="#263238"/>
<path d="M220.952 237.492C220.904 237.492 220.76 236.976 220.352 236.202C219.817 235.201 219.127 234.292 218.306 233.508C217.474 232.728 216.586 232.01 215.648 231.36C215.244 231.108 214.864 230.819 214.514 230.496C214.96 230.672 215.383 230.902 215.774 231.18C216.761 231.784 217.682 232.49 218.522 233.286C219.373 234.088 220.063 235.045 220.556 236.106C220.785 236.535 220.92 237.007 220.952 237.492Z" fill="#263238"/>
<path d="M218.414 241.602C218.414 241.692 216.644 241.758 214.484 242.052C212.324 242.346 210.596 242.742 210.578 242.652C211.819 242.175 213.119 241.868 214.442 241.74C215.754 241.512 217.09 241.466 218.414 241.602Z" fill="#263238"/>
<path d="M190.244 327.942C190.39 328.094 190.513 328.266 190.61 328.452C190.832 328.788 191.126 329.298 191.468 329.934C192.344 331.603 193.056 333.353 193.592 335.16C194.129 336.969 194.491 338.826 194.672 340.704C194.732 341.424 194.762 342.006 194.762 342.408C194.788 342.617 194.788 342.829 194.762 343.038C194.708 343.038 194.66 342.15 194.474 340.728C193.998 337.016 192.924 333.405 191.294 330.036C190.646 328.74 190.202 327.966 190.244 327.942Z" fill="#263238"/>
<path d="M190.706 343.338C191.264 343.506 191.012 338.604 190.544 336.636C190.028 334.482 190.94 333.306 192.11 335.814C193.28 338.322 194.6 344.4 194.6 344.4L190.706 343.338Z" fill="#AE7461"/>
<path d="M204.518 337.29C203.732 338.006 203.1 338.874 202.66 339.841C202.219 340.809 201.98 341.855 201.956 342.918H204.326C204.737 340.627 205.578 338.434 206.804 336.456C206 336.24 205.148 336.72 204.518 337.29Z" fill="#AE7461"/>
<path d="M189.884 278.112C187.441 279.758 184.909 281.268 182.3 282.636C181.28 283.176 179.966 283.674 179.036 282.984C182.54 280.296 186.17 277.44 188.252 273.6C185.564 266.934 180.932 258.762 172.904 254.268C172.904 254.268 172.646 254.136 172.178 253.92C171.205 255.467 170.419 257.125 169.838 258.858C168.89 261.474 168.092 264.192 166.55 266.514C166.034 265.878 166.232 264.948 166.454 264.162C167.522 260.37 168.592 256.57 169.664 252.762C166.264 251.293 162.768 250.056 159.2 249.06C158.112 251.58 157.024 254.098 155.936 256.614C155.336 256.014 155.474 255.09 155.588 254.28C155.873 252.278 155.873 250.246 155.588 248.244C153.661 247.854 151.686 247.765 149.732 247.98C144.074 248.826 140.732 251.256 141.032 254.886C144.082 254.609 147.146 254.533 150.206 254.658C147.301 255.504 144.306 256.007 141.284 256.158C141.752 257.552 142.475 258.848 143.414 259.98C144.668 261.564 145.724 262.734 146.714 263.778C151.681 262.589 156.849 262.507 161.852 263.538C160.262 264.552 158.216 264.258 156.332 264.216C153.665 264.159 151.016 264.67 148.562 265.716C150.866 268.158 153.224 270.96 157.43 278.256C158.078 279.378 158.708 280.482 159.332 281.556C160.447 282.262 161.723 282.675 163.04 282.756C164.882 282.826 166.724 282.624 168.506 282.156C168.866 282.078 169.364 282.078 169.454 282.438C169.544 282.798 169.034 283.038 168.638 283.092C167.376 283.176 166.122 283.356 164.888 283.632C163.642 283.915 162.547 284.656 161.822 285.708C165.362 291.444 168.902 296.016 173.558 298.146C175.429 297.678 177.195 296.864 178.766 295.746C178.193 297.043 177.297 298.171 176.162 299.022C177.824 299.414 179.539 299.53 181.238 299.364C192.578 298.35 192.464 286.506 190.436 279.78C190.262 279.306 190.082 278.724 189.884 278.112Z" fill="#455A64"/>
<path d="M197.078 342.516C197.078 342.516 197.078 342.426 197.036 342.246C196.994 342.066 196.982 341.778 196.94 341.436L196.604 338.322C196.328 335.598 195.926 331.686 195.404 326.862C195.164 324.462 194.894 321.792 194.606 318.948C194.318 316.104 194.126 313.038 193.076 309.996C192.044 306.808 190.747 303.711 189.2 300.738C187.58 297.648 185.756 294.522 183.746 291.408C179.72 285.174 175.484 279.51 171.56 274.416C169.592 271.878 167.756 269.43 165.932 267.216C164.301 265.132 162.462 263.22 160.442 261.51L155.474 257.214C154.01 255.96 152.726 254.904 151.652 254.07C150.578 253.236 149.72 252.624 149.138 252.204L148.472 251.736C148.394 251.685 148.32 251.629 148.25 251.568L148.49 251.712L149.174 252.156C149.774 252.558 150.644 253.152 151.73 253.956C152.816 254.76 154.13 255.822 155.588 257.064L160.586 261.324C162.627 263.03 164.487 264.943 166.136 267.03C167.972 269.232 169.814 271.668 171.788 274.23C175.724 279.318 179.972 284.982 184.01 291.222C186.02 294.348 187.85 297.48 189.476 300.588C191.045 303.579 192.358 306.699 193.4 309.912L194.042 312.216C194.18 312.99 194.318 313.758 194.456 314.508C194.527 314.881 194.575 315.257 194.6 315.636L194.708 316.746C194.78 317.484 194.852 318.21 194.918 318.918C195.194 321.768 195.446 324.414 195.68 326.838C196.13 331.638 196.502 335.586 196.754 338.31C196.874 339.654 196.97 340.71 197.036 341.43C197.036 341.772 197.084 342.03 197.096 342.24C197.108 342.45 197.078 342.516 197.078 342.516Z" fill="#263238"/>
<path d="M160.31 275.4C160.918 275.252 161.539 275.167 162.164 275.148C163.67 275.041 165.182 275.041 166.688 275.148C168.193 275.253 169.689 275.465 171.164 275.784C171.78 275.888 172.383 276.057 172.964 276.288C172.342 276.232 171.725 276.136 171.116 276C169.982 275.808 168.41 275.586 166.658 275.46C164.906 275.334 163.322 275.34 162.17 275.376C161.551 275.422 160.93 275.43 160.31 275.4Z" fill="#263238"/>
<path d="M173.48 264C172.824 265.517 172.312 267.092 171.95 268.704C171.7 270.337 171.602 271.99 171.656 273.642C171.51 273.172 171.433 272.683 171.428 272.19C171.351 271.004 171.424 269.812 171.644 268.644C171.868 267.478 172.235 266.343 172.736 265.266C172.923 264.811 173.173 264.384 173.48 264Z" fill="#263238"/>
<path d="M175.79 260.598C175.862 260.652 175.67 261.018 175.364 261.42C175.058 261.822 174.764 262.098 174.68 262.02C174.596 261.942 174.806 261.606 175.112 261.204C175.418 260.802 175.724 260.55 175.79 260.598Z" fill="#263238"/>
<path d="M181.4 268.128C181.442 268.158 180.962 268.782 180.308 269.862C178.581 272.678 177.552 275.867 177.308 279.162C177.212 280.422 177.242 281.208 177.194 281.208C177.136 281.032 177.107 280.847 177.11 280.662C177.083 280.158 177.083 279.654 177.11 279.15C177.166 277.482 177.452 275.831 177.962 274.242C178.472 272.652 179.195 271.139 180.11 269.742C180.389 269.326 180.689 268.926 181.01 268.542C181.268 268.254 181.4 268.11 181.4 268.128Z" fill="#263238"/>
<path d="M181.466 286.692C180.791 286.708 180.116 286.682 179.444 286.614C178.202 286.542 176.48 286.482 174.578 286.518C172.676 286.554 170.978 286.668 169.718 286.782C169.05 286.872 168.377 286.923 167.702 286.932C167.869 286.855 168.047 286.809 168.23 286.794C168.572 286.728 169.07 286.644 169.694 286.56C172.934 286.144 176.21 286.088 179.462 286.392C180.062 286.452 180.59 286.518 180.932 286.572C181.115 286.585 181.295 286.625 181.466 286.692Z" fill="#263238"/>
<path d="M182.924 289.62C182.924 289.71 181.232 289.704 179.174 289.92C177.116 290.136 175.466 290.478 175.448 290.388C176.636 289.952 177.881 289.689 179.144 289.608C180.398 289.427 181.671 289.432 182.924 289.62Z" fill="#263238"/>
<path d="M186.848 284.934C186.926 284.988 186.056 286.23 185.318 287.934C184.58 289.638 184.262 291.12 184.166 291.102C184.233 289.957 184.529 288.837 185.036 287.808C185.446 286.741 186.062 285.764 186.848 284.934Z" fill="#263238"/>
<path d="M168.884 270.366C168.217 270.265 167.556 270.129 166.904 269.958C165.704 269.694 163.988 269.358 162.104 269.16C160.22 268.962 158.504 268.872 157.244 268.854C156.57 268.876 155.895 268.858 155.222 268.8C155.398 268.749 155.579 268.721 155.762 268.716C156.11 268.68 156.62 268.65 157.244 268.632C158.879 268.591 160.515 268.664 162.14 268.848C163.759 269.037 165.362 269.336 166.94 269.742C167.54 269.904 168.032 270.048 168.368 270.162C168.551 270.2 168.725 270.269 168.884 270.366Z" fill="#263238"/>
<path d="M164.066 253.962C164.041 254.479 163.973 254.993 163.862 255.498C163.674 256.723 163.55 257.956 163.49 259.194C163.428 260.433 163.428 261.675 163.49 262.914C163.547 263.426 163.569 263.941 163.556 264.456C163.394 263.963 163.299 263.45 163.274 262.932C162.997 260.439 163.115 257.918 163.622 255.462C163.708 254.946 163.858 254.442 164.066 253.962Z" fill="#263238"/>
<path d="M160.52 255.102C160.61 255.102 160.298 256.332 160.304 257.844C160.31 259.356 160.598 260.562 160.508 260.586C159.804 258.826 159.804 256.862 160.508 255.102H160.52Z" fill="#263238"/>
<path d="M155.942 259.05C155.497 259.138 155.045 259.182 154.592 259.182C153.758 259.23 152.606 259.302 151.334 259.416C150.062 259.53 148.934 259.656 148.088 259.752C147.643 259.833 147.191 259.87 146.738 259.86C147.162 259.693 147.606 259.585 148.058 259.536C148.88 259.38 150.032 259.212 151.31 259.104C152.588 258.996 153.746 258.954 154.586 258.96C155.04 258.932 155.496 258.962 155.942 259.05Z" fill="#263238"/>
<path d="M153.752 257.034C153.258 257.16 152.743 257.183 152.24 257.1C151.731 257.12 151.222 257.036 150.746 256.854C151.748 256.706 152.769 256.768 153.746 257.034H153.752Z" fill="#263238"/>
<path d="M216.344 267.408C219.062 265.35 224.096 262.404 229.97 259.89C230.217 259.782 230.486 259.734 230.755 259.749C231.025 259.764 231.286 259.842 231.52 259.977C231.753 260.112 231.952 260.3 232.1 260.525C232.247 260.751 232.34 261.008 232.37 261.276C232.616 263.46 232.928 264.876 233.294 267.624C233.726 264.342 233.894 263.424 234.224 260.118C234.276 259.527 234.5 258.965 234.868 258.5C235.235 258.035 235.731 257.688 236.294 257.502C246.056 254.316 256.64 253.302 262.55 259.422C262.922 259.806 257.12 262.218 250.118 266.796C249.631 267.115 249.042 267.239 248.468 267.144C241.226 265.902 240.908 266.79 239.774 267.21C238.808 267.564 243.488 267.546 246.974 268.26C243.109 271.295 239.561 274.712 236.384 278.46C235.274 279.762 234.266 281.016 233.348 282.222C232.465 282.636 231.524 282.913 230.558 283.044C228.843 283.202 227.12 283.27 225.398 283.248C225.14 283.248 224.798 283.308 224.744 283.548C224.624 283.896 225.092 284.148 225.458 284.202L228.74 284.802C228.997 284.85 229.237 284.962 229.44 285.126C229.642 285.291 229.801 285.503 229.901 285.744C230.001 285.986 230.039 286.248 230.013 286.508C229.986 286.767 229.895 287.016 229.748 287.232C224.126 295.518 221.948 300.372 213.182 299.832C213.182 299.832 207.44 300.036 205.46 292.914C203.48 285.792 208.448 273.36 216.344 267.408Z" fill="#455A64"/>
<path d="M197.3 345.6C197.3 345.6 197.3 345.498 197.3 345.294C197.3 345.09 197.342 344.778 197.378 344.388C197.456 343.596 197.576 342.426 197.75 340.92C198.098 337.92 198.65 333.564 199.52 328.212C200.506 321.95 201.808 315.742 203.42 309.612C204.383 305.983 205.62 302.433 207.122 298.992C208.783 295.317 210.771 291.799 213.062 288.48C214.226 286.77 215.378 285.084 216.608 283.482C217.813 281.903 219.097 280.385 220.454 278.934C223.029 276.18 225.82 273.636 228.8 271.326C231.459 269.234 234.267 267.337 237.2 265.65C239.802 264.233 242.533 263.064 245.354 262.158C249.443 260.884 253.629 259.947 257.87 259.356C259.37 259.134 260.54 258.984 261.332 258.894L262.232 258.792C262.334 258.787 262.436 258.787 262.538 258.792L262.238 258.846L261.338 258.978C260.546 259.092 259.382 259.26 257.888 259.5C253.665 260.14 249.499 261.107 245.426 262.392C242.623 263.308 239.911 264.483 237.326 265.902C234.394 267.59 231.587 269.487 228.926 271.578C225.983 273.884 223.225 276.415 220.676 279.15C219.35 280.572 218.078 282.09 216.854 283.68C215.63 285.27 214.454 286.962 213.326 288.666C211.043 291.969 209.059 295.469 207.398 299.124C205.903 302.551 204.665 306.085 203.696 309.696C201.818 316.602 200.654 322.95 199.736 328.296C198.818 333.642 198.254 337.98 197.87 340.986C197.684 342.474 197.54 343.638 197.438 344.442C197.396 344.832 197.354 345.132 197.33 345.342C197.324 345.428 197.314 345.515 197.3 345.6Z" fill="#263238"/>
<path d="M220.826 291.912C220.327 292.025 219.819 292.093 219.308 292.116C218.372 292.218 217.082 292.362 215.66 292.572C214.238 292.782 212.954 293.004 212.03 293.172C211.532 293.293 211.024 293.369 210.512 293.4C210.983 293.195 211.477 293.046 211.982 292.956C212.9 292.728 214.184 292.464 215.582 292.26C216.98 292.056 218.318 291.942 219.26 291.9C219.781 291.84 220.307 291.844 220.826 291.912Z" fill="#263238"/>
<path d="M222.902 289.344C222.359 289.417 221.812 289.447 221.264 289.434C220.25 289.476 218.864 289.554 217.322 289.728C215.78 289.902 214.412 290.154 213.422 290.328C212.89 290.464 212.348 290.56 211.802 290.616C212.303 290.384 212.831 290.215 213.374 290.112C214.661 289.792 215.968 289.555 217.286 289.404C218.604 289.247 219.931 289.179 221.258 289.2C221.81 289.183 222.362 289.231 222.902 289.344Z" fill="#263238"/>
<path d="M210.104 277.2C210.188 277.2 210.812 280.014 211.496 283.512C212.18 287.01 212.696 289.866 212.588 289.884C212.015 287.805 211.549 285.698 211.19 283.572C210.506 280.08 210.02 277.2 210.104 277.2Z" fill="#263238"/>
<path d="M215.792 269.7C215.84 269.7 215.69 270.516 215.534 271.836C215.125 275.277 215.255 278.761 215.918 282.162C216.17 283.47 216.38 284.268 216.332 284.28C216.234 284.112 216.164 283.93 216.122 283.74C216.002 283.38 215.858 282.858 215.702 282.21C214.911 278.798 214.781 275.267 215.318 271.806C215.42 271.146 215.528 270.606 215.618 270.252C215.647 270.06 215.705 269.874 215.792 269.7Z" fill="#263238"/>
<path d="M232.7 278.724C232.042 278.812 231.378 278.856 230.714 278.856C229.514 278.922 227.804 279.036 225.944 279.252C224.084 279.468 222.416 279.744 221.21 279.966C220.563 280.112 219.908 280.22 219.248 280.29C219.405 280.203 219.575 280.142 219.752 280.11C220.088 280.008 220.568 279.888 221.168 279.75C222.732 279.392 224.314 279.122 225.908 278.94C227.502 278.755 229.104 278.654 230.708 278.64C231.308 278.64 231.824 278.64 232.166 278.64C232.347 278.643 232.527 278.672 232.7 278.724Z" fill="#263238"/>
<path d="M236.252 274.8C235.648 274.748 235.047 274.662 234.452 274.542C231.606 274.13 228.711 274.19 225.884 274.722C225.302 274.86 224.713 274.968 224.12 275.046C224.668 274.796 225.244 274.615 225.836 274.506C228.675 273.839 231.624 273.777 234.488 274.326C235.093 274.411 235.686 274.57 236.252 274.8Z" fill="#263238"/>
<path d="M235.964 271.734C235.29 271.8 234.61 271.761 233.948 271.62C233.272 271.583 232.606 271.439 231.974 271.194C232.648 271.132 233.327 271.171 233.99 271.308C234.666 271.349 235.332 271.493 235.964 271.734Z" fill="#263238"/>
<path d="M225.938 263.064C225.82 265.116 225.593 267.161 225.26 269.19C224.792 272.556 224.348 275.28 224.264 275.268C224.18 275.256 224.486 272.514 224.948 269.148C225.41 265.782 225.854 263.052 225.938 263.064Z" fill="#263238"/>
<path d="M219.506 271.038C219.785 272.452 219.963 273.883 220.04 275.322C220.217 276.753 220.294 278.195 220.268 279.636C219.981 278.224 219.801 276.792 219.728 275.352C219.551 273.921 219.476 272.48 219.506 271.038Z" fill="#263238"/>
<path d="M242.114 257.46C242.144 257.502 241.772 257.82 241.328 258.45C240.762 259.292 240.306 260.203 239.972 261.162C239.564 262.284 239.216 263.322 238.874 264.042C238.722 264.445 238.501 264.819 238.22 265.146C238.342 264.736 238.492 264.335 238.67 263.946C238.958 263.22 239.27 262.182 239.678 261.048C240.016 260.062 240.513 259.138 241.148 258.312C241.399 257.957 241.73 257.665 242.114 257.46Z" fill="#263238"/>
<path d="M243.56 260.106C243.444 260.725 243.227 261.321 242.918 261.87C242.699 262.463 242.385 263.016 241.988 263.508C242.104 262.889 242.321 262.293 242.63 261.744C242.849 261.151 243.164 260.598 243.56 260.106Z" fill="#263238"/>
<path d="M251.402 262.692C250.478 262.753 249.551 262.711 248.636 262.566C247.711 262.526 246.793 262.381 245.9 262.134C247.75 262.107 249.596 262.295 251.402 262.692Z" fill="#263238"/>
<path d="M179.492 305.604L177.146 309.378L177.554 303.768C177.554 303.768 173.276 298.878 160.64 300C160.64 300 156.362 299.898 153.914 301.2C151.466 302.502 152.678 304.152 152.678 304.152C169.334 310.974 182.432 319.254 190.19 329.73C191.891 327.773 193.265 325.555 194.258 323.16C195.686 319.518 192.74 309.174 179.492 305.604Z" fill="#455A64"/>
<path d="M172.01 304.344C172.191 304.781 172.307 305.242 172.352 305.712C172.533 306.833 172.614 307.967 172.592 309.102C172.57 310.236 172.441 311.364 172.208 312.474C172.135 312.933 171.998 313.379 171.8 313.8C171.704 313.8 172.22 311.694 172.268 309.066C172.316 306.438 171.914 304.362 172.01 304.344Z" fill="#263238"/>
<path d="M167.138 304.356C168.323 306.647 168.837 309.226 168.62 311.796C168.524 311.796 168.512 310.086 168.098 308.034C167.684 305.982 167.048 304.392 167.138 304.356Z" fill="#263238"/>
<path d="M175.142 310.2C175.239 311.005 175.172 311.822 174.944 312.6C174.81 313.405 174.51 314.173 174.062 314.856C174.223 314.07 174.423 313.293 174.662 312.528C174.781 311.744 174.941 310.967 175.142 310.2Z" fill="#263238"/>
<path d="M184.4 310.59C184.255 311.028 184.053 311.446 183.8 311.832C183.232 312.797 182.609 313.729 181.934 314.622C181.265 315.52 180.544 316.377 179.774 317.19C179.473 317.548 179.129 317.867 178.748 318.138C178.998 317.747 179.286 317.382 179.606 317.046C180.158 316.392 180.902 315.48 181.688 314.436C182.474 313.392 183.134 312.426 183.608 311.718C183.838 311.319 184.103 310.942 184.4 310.59Z" fill="#263238"/>
<path d="M188.6 314.208C188.311 314.586 187.977 314.927 187.604 315.222C186.956 315.822 186.026 316.602 184.958 317.412C183.89 318.222 182.882 318.9 182.132 319.362C181.744 319.638 181.325 319.868 180.884 320.046C181.227 319.718 181.606 319.428 182.012 319.182C182.72 318.672 183.704 317.982 184.766 317.16C185.828 316.338 186.776 315.606 187.46 315.054C187.81 314.733 188.192 314.45 188.6 314.208Z" fill="#263238"/>
<path d="M189.554 318.984C188.642 319.685 187.631 320.247 186.554 320.652C185.523 321.153 184.423 321.497 183.29 321.672C183.26 321.582 184.712 321.108 186.428 320.364C188.144 319.62 189.506 318.906 189.554 318.984Z" fill="#263238"/>
<path d="M190.556 213C190.628 213.048 188.9 216.144 186.686 219.924C184.472 223.704 182.618 226.734 182.546 226.692C182.474 226.65 184.202 223.548 186.416 219.768C188.63 215.988 190.484 212.952 190.556 213Z" fill="#263238"/>
<path d="M193.4 207.906C193.466 207.96 193.058 208.506 192.488 209.148C191.918 209.79 191.408 210.246 191.342 210.186C191.566 209.717 191.875 209.294 192.254 208.938C192.83 208.308 193.34 207.846 193.4 207.906Z" fill="#263238"/>
<path d="M193.154 199.89C193.001 200.147 192.822 200.388 192.62 200.61L191.108 202.518C189.83 204.126 188.108 206.388 186.35 208.974C184.592 211.56 183.092 213.984 182.048 215.754C181.556 216.606 181.142 217.308 180.848 217.854C180.711 218.12 180.552 218.375 180.374 218.616C180.472 218.334 180.595 218.061 180.74 217.8C180.998 217.284 181.388 216.546 181.886 215.646C182.876 213.846 184.34 211.398 186.086 208.8C187.832 206.202 189.608 203.958 190.928 202.374C191.588 201.588 192.128 200.958 192.524 200.532C192.714 200.299 192.925 200.084 193.154 199.89Z" fill="#263238"/>
<path d="M175.58 207.27C175.298 207.243 175.019 207.193 174.746 207.12L172.502 206.64C170.6 206.238 167.966 205.734 165.032 205.314C162.098 204.894 159.428 204.636 157.496 204.486L155.198 204.318C154.916 204.314 154.634 204.282 154.358 204.222C154.64 204.197 154.923 204.197 155.204 204.222C155.75 204.222 156.536 204.222 157.508 204.288C159.452 204.384 162.134 204.606 165.08 205.026C168.026 205.446 170.654 205.992 172.55 206.448C173.492 206.676 174.254 206.874 174.776 207.048C175.051 207.094 175.32 207.169 175.58 207.27Z" fill="#263238"/>
<path d="M184.586 189.99C184.483 190.215 184.357 190.428 184.208 190.626L183.11 192.306C182.198 193.734 180.986 195.738 179.798 198.036C178.61 200.334 177.668 202.476 177.032 204.036C176.738 204.774 176.486 205.398 176.288 205.902C176.21 206.137 176.11 206.364 175.988 206.58C176.021 206.333 176.084 206.092 176.174 205.86C176.312 205.404 176.528 204.756 176.828 203.958C177.597 201.878 178.495 199.848 179.516 197.88C180.537 195.91 181.677 194.005 182.93 192.174C183.41 191.472 183.812 190.914 184.13 190.542C184.262 190.342 184.415 190.157 184.586 189.99Z" fill="#263238"/>
<path d="M180.548 182.76C180.433 182.995 180.293 183.217 180.128 183.42C179.834 183.834 179.426 184.44 178.928 185.22C177.649 187.181 176.506 189.228 175.508 191.346C174.521 193.459 173.683 195.638 173 197.868C172.736 198.732 172.538 199.428 172.4 199.92C172.349 200.176 172.268 200.426 172.16 200.664C172.176 200.403 172.216 200.144 172.28 199.89C172.376 199.392 172.544 198.69 172.778 197.808C174.04 193.25 176.069 188.941 178.778 185.064C179.294 184.326 179.732 183.738 180.056 183.348C180.201 183.137 180.366 182.94 180.548 182.76Z" fill="#263238"/>
<path d="M175.046 185.958C175.13 186.012 174.404 187.158 173.846 188.67C173.288 190.182 173.024 191.526 172.928 191.508C173.027 189.475 173.78 187.528 175.076 185.958H175.046Z" fill="#263238"/>
<path d="M152.798 185.862C152.997 185.832 153.199 185.832 153.398 185.862C153.776 185.862 154.322 185.898 154.994 185.964C156.746 186.128 158.484 186.427 160.19 186.858C161.898 187.289 163.571 187.848 165.194 188.532C165.794 188.796 166.31 189.03 166.646 189.204C166.827 189.279 166.996 189.377 167.15 189.498C167.15 189.546 166.37 189.21 165.11 188.736C163.477 188.118 161.81 187.594 160.118 187.164C158.423 186.736 156.704 186.408 154.97 186.18C153.626 186 152.798 185.91 152.798 185.862Z" fill="#263238"/>
<path d="M156.86 183.6C157.314 183.55 157.772 183.565 158.222 183.642C159.311 183.766 160.385 183.991 161.432 184.314C162.482 184.633 163.499 185.053 164.468 185.568C164.884 185.754 165.271 186 165.614 186.3C165.566 186.384 163.772 185.352 161.342 184.614C158.912 183.876 156.854 183.684 156.86 183.6Z" fill="#263238"/>
<path d="M166.508 172.134C166.429 172.662 166.303 173.183 166.13 173.688C165.872 174.642 165.53 175.962 165.242 177.438C164.954 178.914 164.744 180.258 164.642 181.236C164.604 181.768 164.519 182.296 164.39 182.814C164.335 182.281 164.346 181.743 164.42 181.212C164.635 178.633 165.149 176.088 165.95 173.628C166.081 173.111 166.268 172.61 166.508 172.134Z" fill="#263238"/>
<path d="M160.244 196.848C160.85 196.856 161.453 196.926 162.044 197.058C163.484 197.316 164.91 197.648 166.316 198.054C167.721 198.464 169.103 198.948 170.456 199.506C171.028 199.71 171.577 199.973 172.094 200.292C171.509 200.132 170.935 199.932 170.378 199.692C169.322 199.314 167.864 198.816 166.226 198.336C164.588 197.856 163.088 197.502 161.996 197.262C161.404 197.163 160.818 197.025 160.244 196.848Z" fill="#263238"/>
<path d="M160.4 216.888C160.649 216.838 160.902 216.814 161.156 216.816C161.642 216.78 162.356 216.762 163.22 216.768C165.492 216.786 167.759 216.962 170.006 217.296C172.236 217.641 174.439 218.138 176.6 218.784C177.434 219.036 178.1 219.264 178.556 219.438C178.8 219.506 179.034 219.605 179.252 219.732C179.003 219.694 178.758 219.634 178.52 219.552C178.052 219.414 177.374 219.222 176.54 219C174.358 218.412 172.145 217.947 169.91 217.608C167.675 217.283 165.424 217.083 163.166 217.008C162.296 216.978 161.594 216.96 161.108 216.954C160.871 216.956 160.633 216.934 160.4 216.888Z" fill="#263238"/>
<path d="M167 224.514C167.197 224.475 167.399 224.459 167.6 224.466C167.984 224.466 168.548 224.466 169.244 224.466C171.05 224.521 172.853 224.669 174.644 224.91C176.443 225.15 178.227 225.487 179.99 225.918C180.662 226.086 181.19 226.236 181.58 226.35C181.779 226.392 181.971 226.462 182.15 226.56C182.15 226.602 181.298 226.41 179.936 226.134C178.574 225.858 176.696 225.534 174.602 225.216C172.508 224.898 170.594 224.778 169.202 224.688C168.465 224.67 167.73 224.612 167 224.514Z" fill="#263238"/>
<path d="M169.298 228.21C169.723 228.126 170.158 228.107 170.588 228.156C171.626 228.195 172.659 228.313 173.678 228.51C174.697 228.71 175.7 228.984 176.678 229.332C177.104 229.446 177.509 229.626 177.878 229.866C177.848 229.956 176.012 229.266 173.648 228.816C171.284 228.366 169.298 228.306 169.298 228.21Z" fill="#263238"/>
<path d="M166.232 235.14C166.552 235.145 166.871 235.175 167.186 235.23C167.786 235.302 168.674 235.446 169.754 235.656C175.389 236.77 180.804 238.797 185.786 241.656C186.74 242.208 187.496 242.676 188.006 243.024C188.28 243.187 188.539 243.374 188.78 243.582C188.487 243.455 188.206 243.303 187.94 243.126C187.412 242.814 186.644 242.376 185.678 241.848C180.663 239.106 175.286 237.086 169.706 235.848C168.638 235.614 167.768 235.434 167.168 235.326C166.851 235.292 166.538 235.23 166.232 235.14Z" fill="#263238"/>
<path d="M239.312 342.66H156.458V355.416H239.312V342.66Z" fill="#D55672"/>
<path d="M163.736 355.416L172.55 400.458H224.24L232.034 355.416H163.736Z" fill="#D55672"/>
<path opacity="0.3" d="M163.736 355.416L164.456 359.082H231.398L232.034 355.416H163.736Z" fill="black"/>
<path d="M197.996 176.934L183.728 159.936C189.696 165.102 194.813 171.177 198.89 177.936" fill="#263238"/>
<path d="M204.602 161.856C203.299 165.375 203.121 169.212 204.092 172.836L204.974 179.682C206.556 173.827 206.427 167.64 204.602 161.856Z" fill="#D55672"/>
<g opacity="0.3">
<path d="M204.602 161.856C203.299 165.375 203.121 169.212 204.092 172.836L204.974 179.682C206.556 173.827 206.427 167.64 204.602 161.856Z" fill="black"/>
</g>
<path d="M186.014 164.4C187.214 166.59 188.906 168.354 190.598 170.19C192.29 172.026 194.246 173.322 196.034 174.93C199.364 177.93 201.836 181.734 204.266 185.496L203.306 186.006C202.658 183.948 200.786 182.52 198.902 181.464C197.018 180.408 194.96 179.544 193.442 178.002C192.313 176.734 191.39 175.296 190.706 173.742L186.014 164.4Z" fill="#D55672"/>
<g opacity="0.3">
<path d="M186.014 164.4C187.214 166.59 188.906 168.354 190.598 170.19C192.29 172.026 194.246 173.322 196.034 174.93C199.364 177.93 201.836 181.734 204.266 185.496L203.306 186.006C202.658 183.948 200.786 182.52 198.902 181.464C197.018 180.408 194.96 179.544 193.442 178.002C192.313 176.734 191.39 175.296 190.706 173.742L186.014 164.4Z" fill="black"/>
</g>
<path d="M204.662 185.322C204.662 183.42 203.228 181.872 202.118 180.324C200.262 177.604 198.958 174.546 198.278 171.324C197.605 168.104 197.144 164.843 196.898 161.562L203.294 170.34C204.338 171.78 205.412 173.304 205.616 175.068C205.802 176.742 205.172 178.392 204.872 180.048C204.572 181.704 204.734 183.648 206.072 184.704" fill="#D55672"/>
<path opacity="0.3" d="M198.122 170.61C198.122 170.61 201.41 173.064 202.538 175.092C203.666 177.12 205.262 184.872 205.262 184.872L204.662 185.322C204.52 184.346 204.205 183.403 203.732 182.538C203.02 181.439 202.176 180.431 201.218 179.538C200 178.668 198.722 173.4 198.482 172.14C198.404 171.621 198.283 171.109 198.122 170.61Z" fill="black"/>
<path d="M202.232 179.148C201.806 177.912 201.446 176.646 201.032 175.404C200.469 173.7 199.457 172.179 198.104 171C197.426 170.4 196.724 169.848 196.028 169.29L189.23 163.8C189.502 164.625 189.839 165.428 190.238 166.2L194.63 175.164C195.41 176.766 196.238 178.422 197.63 179.55C198.83 180.54 200.372 181.038 201.71 181.848C203.048 182.658 204.272 184.008 204.176 185.568L205.43 184.896C203.952 183.24 202.86 181.277 202.232 179.148Z" fill="#D55672"/>
<path d="M204.65 185.718C208.166 177.204 208.346 167.718 210.68 158.796C211.28 159.702 210.86 160.902 210.536 161.946C209.51 165.258 209.87 168.822 209.444 172.26C208.844 176.994 206.804 181.404 204.776 185.724" fill="#263238"/>
<path d="M204.698 185.238C203.677 183.881 202.306 182.827 200.732 182.19C199.466 181.82 198.157 181.618 196.838 181.59C192.901 181.343 188.953 181.357 185.018 181.632C184.954 181.629 184.891 181.639 184.832 181.663C184.773 181.687 184.72 181.723 184.676 181.77C184.55 181.95 184.754 182.172 184.934 182.292C187.345 183.913 190.172 184.805 193.076 184.86C195.086 184.896 197.072 184.53 199.076 184.416C201.08 184.302 203.18 184.458 204.926 185.448L204.698 185.238Z" fill="#D55672"/>
<path d="M208.184 180.936C205.345 183.011 202.984 185.671 201.26 188.736C199.142 192.768 198.86 200.868 198.428 205.404C199.706 200.64 201.218 195.852 204.008 191.784C207.992 185.976 214.424 181.848 217.106 175.332C214.002 176.984 211.02 178.857 208.184 180.936Z" fill="#455A64"/>
<path d="M198.284 165.6C198.442 165.747 198.579 165.914 198.692 166.098C198.944 166.428 199.292 166.908 199.724 167.514C200.156 168.12 200.63 168.852 201.248 169.596C201.866 170.34 202.604 171.126 203.294 172.032C203.969 172.882 204.461 173.863 204.74 174.912C204.908 175.781 204.881 176.676 204.662 177.534C204.512 178.206 204.38 178.776 204.278 179.244C204.242 179.449 204.186 179.65 204.11 179.844C204.092 179.627 204.108 179.408 204.158 179.196C204.206 178.788 204.32 178.194 204.446 177.474C204.625 176.643 204.625 175.785 204.446 174.954C204.163 173.952 203.684 173.016 203.036 172.2C202.358 171.312 201.62 170.526 201.014 169.752C200.408 168.978 199.94 168.222 199.526 167.61C199.112 166.998 198.8 166.536 198.596 166.2C198.464 166.016 198.359 165.814 198.284 165.6Z" fill="#263238"/>
<path d="M239.6 355.416C239.6 355.5 220.952 355.572 197.954 355.572C174.956 355.572 156.308 355.5 156.308 355.416C156.308 355.332 174.95 355.26 197.954 355.26C220.958 355.26 239.6 355.326 239.6 355.416Z" fill="#263238"/>
</svg>
